<?xml version="1.0" encoding="UTF-8" standalone="no"?>
<svg width="64px" height="64px" viewBox="0 0 64 64" version="1.1" xmlns="http://www.w3.org/2000/svg" xmlns:xlink="http://www.w3.org/1999/xlink" xmlns:sketch="http://www.bohemiancoding.com/sketch/ns">
    <!-- Generator: Sketch 3.4 (15575) - http://www.bohemiancoding.com/sketch -->
    <title>c-ampersand</title>
    <desc>Created with Sketch.</desc>
    <defs></defs>
    <g id="Page-1" stroke="none" stroke-width="1" fill="none" fill-rule="evenodd" sketch:type="MSPage">
        <g id="c-ampersand" sketch:type="MSArtboardGroup">
            <path d="M32,64 C49.673112,64 64,49.673112 64,32 C64,14.326888 49.673112,0 32,0 C14.326888,0 0,14.326888 0,32 C0,49.673112 14.326888,64 32,64 Z" id="Oval-1" fill="#1191BB" sketch:type="MSShapeGroup"></path>
            <path d="M37.7575758,40.736907 C36.8177379,40.211129 36.1633747,39.3649678 35.7944664,38.198398 C34.7580097,39.3813984 33.6600848,40.2275596 32.5006588,40.736907 C31.3412327,41.2462543 30.09399,41.5009242 28.7588933,41.5009242 C27.6521684,41.5009242 26.6903862,41.3201908 25.8735178,40.9587184 C25.0566494,40.5972461 24.3715443,40.1002291 23.8181818,39.4676525 C23.2648194,38.8350759 22.8519996,38.0874966 22.5797101,37.2248922 C22.3074207,36.3622877 22.171278,35.4216522 22.171278,34.4029575 C22.171278,33.4664155 22.2986373,32.5175649 22.5533597,31.5563771 C22.8080821,30.5951893 23.1901599,29.6668765 23.6996047,28.771411 C24.2090495,27.8759454 24.845846,27.0379994 25.6100132,26.2575478 C26.3741804,25.4770961 27.2744788,24.7952381 28.3109354,24.2119532 C29.3473921,23.6286683 30.5068008,23.1686195 31.7891963,22.831793 C33.0715918,22.4949665 34.4945025,22.3265558 36.057971,22.3265558 C37.4106348,22.3265558 38.5700435,22.4251376 39.5362319,22.6223044 C40.5024203,22.8194711 41.4334606,23.0987864 42.3293808,23.4602588 L39.7997365,32.6038201 C39.5186635,33.655376 39.3781291,34.5343978 39.3781291,35.2409119 C39.3781291,35.7338287 39.4440046,36.1445866 39.5757576,36.4731978 C39.7075105,36.801809 39.8831785,37.064694 40.1027668,37.2618608 C40.3223551,37.4590275 40.5902487,37.5945776 40.9064559,37.6685151 C41.222663,37.7424526 41.5652155,37.7794208 41.9341238,37.7794208 C42.6719404,37.7794208 43.3702207,37.5617192 44.0289855,37.1263093 C44.6877503,36.6908994 45.263063,36.0788702 45.7549407,35.2902033 C46.2468184,34.5015364 46.6376797,33.5650085 46.9275362,32.4805915 C47.2173928,31.3961745 47.3623188,30.2131919 47.3623188,28.9316081 C47.3623188,26.7956352 47.0065912,24.9143643 46.2951252,23.2877388 C45.5836592,21.6611132 44.591135,20.3015047 43.3175231,19.2088725 C42.0439111,18.1162402 40.5199913,17.2947245 38.7457181,16.7443007 C36.9714448,16.1938769 35.0303136,15.9186691 32.9222661,15.9186691 C30.620981,15.9186691 28.4822233,16.3253194 26.5059289,17.1386322 C24.5296344,17.9519449 22.8168715,19.0650987 21.3675889,20.4781269 C19.9183063,21.8911551 18.7852478,23.558832 17.9683794,25.4812076 C17.1515111,27.4035832 16.743083,29.4738028 16.743083,31.6919285 C16.743083,34.3865405 17.1910364,36.7566133 18.0869565,38.8022181 C18.9828767,40.8478229 20.2125526,42.5565756 21.7760211,43.9285274 C23.3394896,45.3004792 25.1796117,46.3314815 27.2964427,47.021565 C29.4132736,47.7116486 31.7013491,48.0566852 34.1607378,48.0566852 C35.5134016,48.0566852 36.7782111,47.9868563 37.9552042,47.8471965 C39.1321974,47.7075368 40.2125555,47.5185882 41.1963109,47.280345 C42.1800664,47.0421019 43.0759731,46.7710017 43.884058,46.4670364 C44.6921428,46.163071 45.4123816,45.8385723 46.0447958,45.4935305 C46.396137,45.3127943 46.6947726,45.2224276 46.9407115,45.2224276 C47.4501563,45.2224276 47.8102756,45.4853126 48.0210804,46.0110906 L48.916996,48.2045595 C47.0900216,49.3218376 44.9556556,50.23372 42.513834,50.9402341 C40.0720124,51.6467482 37.2876748,52 34.1607378,52 C30.9810996,52 28.0386609,51.531736 25.3333333,50.5951941 C22.6280058,49.6586521 20.2872299,48.3154739 18.3109354,46.5656192 C16.334641,44.8157645 14.7887627,42.6839312 13.6732543,40.1700555 C12.5577458,37.6561797 12,34.8301656 12,31.6919285 C12,29.9338585 12.2415435,28.2251059 12.7246377,26.5656192 C13.2077319,24.9061326 13.8972287,23.3493603 14.7931489,21.8952557 C15.689069,20.4411511 16.7694271,19.106188 18.0342556,17.8903266 C19.2990841,16.6744651 20.7044279,15.6311401 22.2503294,14.7603204 C23.7962308,13.8895007 25.4694684,13.2117502 27.2700922,12.7270487 C29.0707161,12.2423471 30.9547552,12 32.9222661,12 C35.4167889,12 37.8102652,12.39022 40.1027668,13.1706716 C42.3952684,13.9511232 44.4242336,15.0683846 46.1897233,16.5224892 C47.955213,17.9765938 49.3649486,19.7510678 50.4189723,21.8459643 C51.472996,23.9408608 52,26.3027184 52,28.9316081 C52,30.6896781 51.7233229,32.3368171 51.1699605,33.8730746 C50.616598,35.409332 49.8436589,36.744295 48.8511199,37.8780037 C47.8585809,39.0117124 46.6903888,39.9030569 45.3465086,40.5520641 C44.0026283,41.2010712 42.5401924,41.5255699 40.9591568,41.5255699 C39.7645966,41.5255699 38.6974136,41.2626849 37.7575758,40.736907 Z M30.0500659,37.5822551 C30.5068095,37.5822551 30.9679379,37.5165338 31.4334651,37.3850893 C31.8989922,37.2536449 32.3425539,37.0195129 32.7641634,36.6826864 C33.1857729,36.3458599 33.5722424,35.8981338 33.9235837,35.3394948 C34.2749249,34.7808557 34.5647771,34.0825673 34.7931489,33.2446087 L36.7167325,26.2945163 C36.1545866,26.195933 35.5748822,26.146642 34.9776021,26.146642 C33.8884443,26.146642 32.86957,26.3684513 31.9209486,26.8120764 C30.9723273,27.2557015 30.1510794,27.855408 29.4571805,28.6112138 C28.7632816,29.3670196 28.2143191,30.2337187 27.8102767,31.211337 C27.4062343,32.1889554 27.2042161,33.2035273 27.2042161,34.2550832 C27.2042161,35.3066391 27.4457596,36.1240472 27.9288538,36.7073321 C28.411948,37.290617 29.1190116,37.5822551 30.0500659,37.5822551 L30.0500659,37.5822551 Z" id="@" fill="#FFFFFF" sketch:type="MSShapeGroup"></path>
        </g>
    </g>
</svg>