<?xml version="1.0" encoding="UTF-8" standalone="no"?>
<svg width="64px" height="64px" viewBox="0 0 64 64" version="1.1" xmlns="http://www.w3.org/2000/svg" xmlns:xlink="http://www.w3.org/1999/xlink" xmlns:sketch="http://www.bohemiancoding.com/sketch/ns">
    <!-- Generator: Sketch 3.4 (15575) - http://www.bohemiancoding.com/sketch -->
    <title>c-arrow-nsew</title>
    <desc>Created with Sketch.</desc>
    <defs></defs>
    <g id="Page-1" stroke="none" stroke-width="1" fill="none" fill-rule="evenodd" sketch:type="MSPage">
        <g id="c-arrow-nsew" sketch:type="MSArtboardGroup">
            <path d="M32,64 C49.673112,64 64,49.673112 64,32 C64,14.326888 49.673112,0 32,0 C14.326888,0 0,14.326888 0,32 C0,49.673112 14.326888,64 32,64 Z" id="Oval-1" fill="#A5D6E6" sketch:type="MSShapeGroup"></path>
            <path d="M44,36 L20,36 L20,28 L44,28 L44,36 Z M20,23 L20,41 L10,32 L20,23 Z M44,41 L44,23 L54,32 L44,41 Z" id="Rectangle-1" fill="#FFFFFF" sketch:type="MSShapeGroup" transform="translate(32.000000, 32.000000) rotate(-270.000000) translate(-32.000000, -32.000000) "></path>
            <path d="M44,36 L20,36 L20,28 L44,28 L44,36 Z M20,23 L20,41 L10,32 L20,23 Z M44,41 L44,23 L54,32 L44,41 Z" id="Rectangle-1" fill="#FFFFFF" sketch:type="MSShapeGroup" transform="translate(32.000000, 32.000000) rotate(-180.000000) translate(-32.000000, -32.000000) "></path>
        </g>
    </g>
</svg>