<?xml version="1.0" encoding="UTF-8" standalone="no"?>
<svg width="64px" height="64px" viewBox="0 0 64 64" version="1.1" xmlns="http://www.w3.org/2000/svg" xmlns:xlink="http://www.w3.org/1999/xlink" xmlns:sketch="http://www.bohemiancoding.com/sketch/ns">
    <!-- Generator: Sketch 3.4 (15575) - http://www.bohemiancoding.com/sketch -->
    <title>c-book</title>
    <desc>Created with Sketch.</desc>
    <defs></defs>
    <g id="Page-1" stroke="none" stroke-width="1" fill="none" fill-rule="evenodd" sketch:type="MSPage">
        <g id="c-book" sketch:type="MSArtboardGroup">
            <path d="M32,64 C49.673112,64 64,49.673112 64,32 C64,14.326888 49.673112,0 32,0 C14.326888,0 0,14.326888 0,32 C0,49.673112 14.326888,64 32,64 Z" id="Oval-1" fill="#1191BB" sketch:type="MSShapeGroup"></path>
            <g id="Rectangle-18-+-Rectangle-18-+-Rectangle-20" sketch:type="MSLayerGroup" transform="translate(12.000000, 15.000000)" fill="#FFFFFF">
                <path d="M4,0 C20,0 20,3 20,3 L20,31 C20,31 20,28 4,28 L4,0 Z" id="Rectangle-18" sketch:type="MSShapeGroup"></path>
                <path d="M20,0 C36,0 36,3 36,3 L36,31 C36,31 36,28 20,28 L20,0 Z" id="Rectangle-18" sketch:type="MSShapeGroup" transform="translate(28.000000, 15.500000) scale(-1, 1) translate(-28.000000, -15.500000) "></path>
                <path d="M2,3 L0,3 L0,32 C17,32 17,34 17,34 C17,34 18.3431458,35 20,35 C21.6534829,35 23,34.5522847 23,34 C23,34 23,32 40,32 L40,3 L38,3 L38,30 C20,30 20,33 20,33 C20,33 20,30 2,30 L2,3 Z" id="Rectangle-20" sketch:type="MSShapeGroup"></path>
            </g>
        </g>
    </g>
</svg>