<?xml version="1.0" encoding="UTF-8" standalone="no"?>
<svg width="64px" height="64px" viewBox="0 0 64 64" version="1.1" xmlns="http://www.w3.org/2000/svg" xmlns:xlink="http://www.w3.org/1999/xlink" xmlns:sketch="http://www.bohemiancoding.com/sketch/ns">
    <!-- Generator: Sketch 3.4 (15575) - http://www.bohemiancoding.com/sketch -->
    <title>c-clipboard</title>
    <desc>Created with Sketch.</desc>
    <defs></defs>
    <g id="Page-1" stroke="none" stroke-width="1" fill="none" fill-rule="evenodd" sketch:type="MSPage">
        <g id="c-clipboard" sketch:type="MSArtboardGroup">
            <path d="M32,64 C49.673112,64 64,49.673112 64,32 C64,14.326888 49.673112,0 32,0 C14.326888,0 0,14.326888 0,32 C0,49.673112 14.326888,64 32,64 Z" id="Oval-1" fill="#1191BB" sketch:type="MSShapeGroup"></path>
            <path d="M24,13 L40,13 L40,17 L24,17 L24,13 Z M29,9 L35,9 L35,13 L29,13 L29,9 Z" id="Rectangle-146" fill="#FFFFFF" sketch:type="MSShapeGroup"></path>
            <path d="M42,17 L42,15 L46,15 L46,49 L18,49 L18,15 L22,15 L22,17 L20,17 L20,47 L44,47 L44,17 L42,17 Z" id="Rectangle-143" fill="#FFFFFF" sketch:type="MSShapeGroup"></path>
            <rect id="Rectangle-148" fill="#FFFFFF" sketch:type="MSShapeGroup" x="24" y="22" width="16" height="2"></rect>
            <rect id="Rectangle-148" fill="#FFFFFF" sketch:type="MSShapeGroup" x="24" y="28" width="14" height="2"></rect>
            <rect id="Rectangle-148" fill="#FFFFFF" sketch:type="MSShapeGroup" x="24" y="34" width="16" height="2"></rect>
            <rect id="Rectangle-148" fill="#FFFFFF" sketch:type="MSShapeGroup" x="24" y="40" width="14" height="2"></rect>
        </g>
    </g>
</svg>