<?xml version="1.0" encoding="UTF-8" standalone="no"?>
<svg width="64px" height="64px" viewBox="0 0 64 64" version="1.1" xmlns="http://www.w3.org/2000/svg" xmlns:xlink="http://www.w3.org/1999/xlink" xmlns:sketch="http://www.bohemiancoding.com/sketch/ns">
    <!-- Generator: Sketch 3.4 (15575) - http://www.bohemiancoding.com/sketch -->
    <title>c-comments</title>
    <desc>Created with Sketch.</desc>
    <defs></defs>
    <g id="Page-1" stroke="none" stroke-width="1" fill="none" fill-rule="evenodd" sketch:type="MSPage">
        <g id="c-comments" sketch:type="MSArtboardGroup">
            <path d="M32,64 C49.673112,64 64,49.673112 64,32 C64,14.326888 49.673112,0 32,0 C14.326888,0 0,14.326888 0,32 C0,49.673112 14.326888,64 32,64 Z" id="Oval-1" fill="#1191BB" sketch:type="MSShapeGroup"></path>
            <g id="Rectangle-44-+-Rectangle-44" sketch:type="MSLayerGroup" transform="translate(12.000000, 16.000000)" fill="#FFFFFF">
                <path d="M31.8888889,30 L32.0075946,30 C36.4223393,30 40,26.4186782 40,22.0008939 L40,16.9991061 C40,12.5861677 36.4216782,9 32.0075946,9 L15.9924054,9 C11.5776607,9 8,12.5813218 8,16.9991061 L8,22.0008939 C8,26.4138323 11.5783218,30 15.9924054,30 L23,30 L23,38 L31.8888889,30 Z" id="Rectangle-44" sketch:type="MSShapeGroup"></path>
                <path d="M31.9382732,7 C31.447072,3.05375071 28.0842191,0 24.0075946,0 L7.99240541,0 C3.57832179,0 0,3.58616771 0,7.99910612 L0,13.0008939 C0,16.7302882 2.54956885,19.8635894 6,20.7495148 L6,17.0079727 C6,11.4792691 10.480146,7 16.0066862,7 L31.9382732,7 Z" id="Rectangle-44" sketch:type="MSShapeGroup"></path>
            </g>
        </g>
    </g>
</svg>