<?xml version="1.0" encoding="UTF-8" standalone="no"?>
<svg width="64px" height="64px" viewBox="0 0 64 64" version="1.1" xmlns="http://www.w3.org/2000/svg" xmlns:xlink="http://www.w3.org/1999/xlink" xmlns:sketch="http://www.bohemiancoding.com/sketch/ns">
    <!-- Generator: Sketch 3.4 (15575) - http://www.bohemiancoding.com/sketch -->
    <title>c-copyright</title>
    <desc>Created with Sketch.</desc>
    <defs></defs>
    <g id="Page-1" stroke="none" stroke-width="1" fill="none" fill-rule="evenodd" sketch:type="MSPage">
        <g id="c-copyright" sketch:type="MSArtboardGroup">
            <path d="M32,64 C49.673112,64 64,49.673112 64,32 C64,14.326888 49.673112,0 32,0 C14.326888,0 0,14.326888 0,32 C0,49.673112 14.326888,64 32,64 Z" id="Oval-1" fill="#1191BB" sketch:type="MSShapeGroup"></path>
            <path d="M32,52 C43.045695,52 52,43.045695 52,32 C52,20.954305 43.045695,12 32,12 C20.954305,12 12,20.954305 12,32 C12,43.045695 20.954305,52 32,52 Z M32,48 C40.836556,48 48,40.836556 48,32 C48,23.163444 40.836556,16 32,16 C23.163444,16 16,23.163444 16,32 C16,40.836556 23.163444,48 32,48 Z" id="Oval-1" fill="#FFFFFF" sketch:type="MSShapeGroup"></path>
            <path d="M30.9570312,44.3847656 C27.8059738,44.3847656 25.1920677,43.2174596 23.1152344,40.8828125 C21.0384011,38.5481654 20,35.6048355 20,32.0527344 C20,28.2571425 21.027659,25.2994898 23.0830078,23.1796875 C25.1383566,21.0598852 28.006492,20 31.6875,20 C33.5065195,20 35.5403533,20.2506485 37.7890625,20.7519531 L37.7890625,24.296875 C35.3971235,23.5950486 33.4492263,23.2441406 31.9453125,23.2441406 C29.7825413,23.2441406 28.045905,24.056958 26.7353516,25.6826172 C25.4247981,27.3082764 24.7695312,29.4745958 24.7695312,32.1816406 C24.7695312,34.8027475 25.4427016,36.9225179 26.7890625,38.5410156 C28.1354234,40.1595133 29.8971245,40.96875 32.0742188,40.96875 C34.0078222,40.96875 35.9986877,40.4746143 38.046875,39.4863281 L38.046875,43.1386719 C35.3111842,43.9694052 32.9479266,44.3847656 30.9570312,44.3847656 L30.9570312,44.3847656 Z" id="c" fill="#FFFFFF" sketch:type="MSShapeGroup"></path>
        </g>
    </g>
</svg>