<?xml version="1.0" encoding="UTF-8" standalone="no"?>
<svg width="64px" height="64px" viewBox="0 0 64 64" version="1.1" xmlns="http://www.w3.org/2000/svg" xmlns:xlink="http://www.w3.org/1999/xlink" xmlns:sketch="http://www.bohemiancoding.com/sketch/ns">
    <!-- Generator: Sketch 3.4 (15575) - http://www.bohemiancoding.com/sketch -->
    <title>c-currency-euro</title>
    <desc>Created with Sketch.</desc>
    <defs></defs>
    <g id="Page-1" stroke="none" stroke-width="1" fill="none" fill-rule="evenodd" sketch:type="MSPage">
        <g id="c-currency-euro" sketch:type="MSArtboardGroup">
            <path d="M32,64 C49.673112,64 64,49.673112 64,32 C64,14.326888 49.673112,0 32,0 C14.326888,0 0,14.326888 0,32 C0,49.673112 14.326888,64 32,64 Z" id="Oval-1" fill="#A5D6E6" sketch:type="MSShapeGroup"></path>
            <path d="M15,27.6322931 L18.1976848,27.6322931 C18.566342,25.7010306 19.1513762,23.955797 19.952805,22.39654 C20.7542337,20.837283 21.7319622,19.5115387 22.8860196,18.4192673 C24.040077,17.3269959 25.3463863,16.48406 26.8049866,15.8904342 C28.263587,15.2968084 29.8503921,15 31.5654497,15 C33.7934216,15 35.7007935,15.4234467 37.2876224,16.2703528 C38.8744514,17.1172589 40.2048032,18.2609607 41.2787177,19.7014925 L39.1869991,21.9335142 C39.0267134,22.1076445 38.8584158,22.2619849 38.6821015,22.39654 C38.5057872,22.5310952 38.257348,22.5983718 37.9367765,22.5983718 C37.7123764,22.5983718 37.5080152,22.5350526 37.3236866,22.4084125 C37.1393579,22.2817723 36.9349967,22.1234745 36.7105966,21.9335142 C36.4861966,21.743554 36.2377574,21.5377668 35.9652716,21.3161465 C35.6927858,21.0945263 35.368212,20.8887391 34.9915405,20.6987788 C34.614869,20.5088186 34.1700827,20.3505208 33.6571683,20.2238806 C33.1442539,20.0972404 32.5351772,20.0339213 31.8299199,20.0339213 C29.938548,20.0339213 28.3437287,20.6750275 27.0454141,21.9572592 C25.7470995,23.2394908 24.8414986,25.1311499 24.3285841,27.6322931 L36.398041,27.6322931 L36.398041,29.4369064 C36.398041,29.8009968 36.2497789,30.1373797 35.9532502,30.4460651 C35.6567216,30.7547505 35.2520061,30.9090909 34.7390917,30.9090909 L23.9198575,30.9090909 C23.9038289,31.1782013 23.8958148,31.4433501 23.8958148,31.7045455 L23.8958148,32.5 L23.8958148,33.0698779 C23.8958148,33.2598381 23.9038289,33.4418806 23.9198575,33.6160109 L34.1139804,33.6160109 L34.1139804,35.3968792 C34.1139804,35.7609697 33.9657183,36.0973526 33.6691897,36.406038 C33.372661,36.7147234 32.9759597,36.8690638 32.4790739,36.8690638 L24.2083704,36.8690638 C24.6571705,39.5918273 25.5186935,41.6219969 26.7929653,42.9596336 C28.067237,44.2972704 29.6500351,44.9660787 31.5414069,44.9660787 C32.6954644,44.9660787 33.6211007,44.8117383 34.3183437,44.5030529 C35.0155867,44.1943675 35.5845926,43.8500697 36.0253785,43.4701493 C36.4661643,43.0902288 36.834816,42.745931 37.1313446,42.4372456 C37.4278733,42.1285602 37.752447,41.9742198 38.1050757,41.9742198 C38.28139,41.9742198 38.4376663,42.0019219 38.5739092,42.057327 C38.7101521,42.1127321 38.8423858,42.2195831 38.9706144,42.3778833 L41.5431879,44.7048847 C40.4211876,46.4145269 38.9946658,47.7244414 37.2635797,48.6346676 C35.5324936,49.5448937 33.5209376,50 31.2288513,50 C29.353508,50 27.6665257,49.6873618 26.167854,49.062076 C24.6691822,48.4367902 23.36688,47.5542798 22.2609083,46.4145183 C21.1549366,45.2747569 20.2493357,43.8975657 19.5440784,42.2829037 C18.8388211,40.6682416 18.3419427,38.8636463 18.0534283,36.8690638 L15,36.8690638 L15,33.6160109 L17.7889581,33.6160109 C17.7729296,33.4418806 17.7649154,33.2598381 17.7649154,33.0698779 L17.7649154,32.5 L17.7649154,31.7045455 C17.7649154,31.4433501 17.7729296,31.1782013 17.7889581,30.9090909 L15,30.9090909 L15,27.6322931 Z" id="€" fill="#FFFFFF" sketch:type="MSShapeGroup"></path>
        </g>
    </g>
</svg>