<?xml version="1.0" encoding="UTF-8" standalone="no"?>
<svg width="64px" height="64px" viewBox="0 0 64 64" version="1.1" xmlns="http://www.w3.org/2000/svg" xmlns:xlink="http://www.w3.org/1999/xlink" xmlns:sketch="http://www.bohemiancoding.com/sketch/ns">
    <!-- Generator: Sketch 3.4 (15575) - http://www.bohemiancoding.com/sketch -->
    <title>c-currency-dollar</title>
    <desc>Created with Sketch.</desc>
    <defs></defs>
    <g id="Page-1" stroke="none" stroke-width="1" fill="none" fill-rule="evenodd" sketch:type="MSPage">
        <g id="c-currency-dollar" sketch:type="MSArtboardGroup">
            <path d="M32,64 C49.673112,64 64,49.673112 64,32 C64,14.326888 49.673112,0 32,0 C14.326888,0 0,14.326888 0,32 C0,49.673112 14.326888,64 32,64 Z" id="Oval-1" fill="#A5D6E6" sketch:type="MSShapeGroup"></path>
            <path d="M28.3895509,48.9647059 C26.5306965,48.7137242 24.7870537,48.2117685 23.1585701,47.4588235 C21.5300866,46.7058786 20.1439104,45.7725546 19,44.6588235 L20.8111824,42 C20.9700588,41.7647047 21.180567,41.5725498 21.4427131,41.4235294 C21.7048592,41.2745091 21.978917,41.2 22.2648946,41.2 C22.6144228,41.2 22.9877768,41.3215674 23.3849679,41.5647059 C23.782159,41.8078444 24.2349501,42.094116 24.7433547,42.4235294 C25.2517593,42.7529428 25.8316497,43.0823513 26.4830431,43.4117647 C27.1344365,43.7411781 27.9049757,43.9843129 28.7946838,44.1411765 L29.700275,33.6 C28.5722522,33.2862729 27.456162,32.9176492 26.3519707,32.4941176 C25.2477794,32.0705861 24.2548165,31.5098074 23.3730522,30.8117647 C22.491288,30.113722 21.7803266,29.2313779 21.2401467,28.1647059 C20.6999667,27.0980339 20.4298808,25.7647139 20.4298808,24.1647059 C20.4298808,22.9725431 20.6721638,21.8078488 21.1567369,20.6705882 C21.6413101,19.5333276 22.3443278,18.5176515 23.2658112,17.6235294 C24.1872946,16.7294073 25.3232441,15.9921598 26.6736939,15.4117647 C28.0241436,14.8313696 29.5731657,14.5019612 31.3208066,14.4235294 L31.5829514,11.4588235 C31.6147267,11.0823511 31.7736008,10.7450995 32.0595784,10.4470588 C32.345556,10.1490181 32.71891,10 33.1796517,10 L35.3483043,10 L34.9431714,14.6352941 C36.6272617,14.9019621 38.0809594,15.3725456 39.304308,16.0470588 C40.5276566,16.721572 41.5921128,17.4823487 42.4977085,18.3294118 L41.0678277,20.4705882 C40.8454007,20.7843153 40.622977,21.0196071 40.40055,21.1764706 C40.1781229,21.3333341 39.908037,21.4117647 39.5902841,21.4117647 C39.3519695,21.4117647 39.069968,21.3372556 38.7442713,21.1882353 C38.4185746,21.0392149 38.0452206,20.8588246 37.624198,20.6470588 C37.2031754,20.4352931 36.7384688,20.2196089 36.2300642,20 C35.7216595,19.7803911 35.1576566,19.6000007 34.5380385,19.4588235 L33.7039413,29.2 C34.8478517,29.5450998 35.9798294,29.9254881 37.0999083,30.3411765 C38.2199873,30.7568648 39.2288376,31.2941144 40.1264895,31.9529412 C41.0241414,32.611768 41.7509902,33.4313676 42.3070577,34.4117647 C42.8631253,35.3921618 43.1411549,36.6196005 43.1411549,38.0941176 C43.1411549,39.5529485 42.8949001,40.9215622 42.4023831,42.2 C41.9098662,43.4784378 41.190961,44.6078382 40.2456462,45.5882353 C39.3003314,46.5686324 38.1365789,47.3647028 36.7543538,47.9764706 C35.3721287,48.5882384 33.7913318,48.9568621 32.0119157,49.0823529 L31.7259395,52.5411765 C31.6941642,52.9019626 31.5352902,53.2352926 31.2493126,53.5411765 C30.963335,53.8470604 30.5899809,54 30.1292392,54 L27.9605866,54 L28.3895509,48.9647059 Z M37.5646196,38.9882353 C37.5646196,38.3921539 37.4573796,37.8705905 37.2428964,37.4235294 C37.0284132,36.9764684 36.7265525,36.5803939 36.3373052,36.2352941 C35.9480579,35.8901944 35.491295,35.5921581 34.9670027,35.3411765 C34.4427105,35.0901948 33.8707639,34.8627461 33.2511457,34.6588235 L32.4408799,44.2117647 C34.1249702,43.9921558 35.3999346,43.4313771 36.2658112,42.5294118 C37.1316878,41.6274465 37.5646196,40.4470661 37.5646196,38.9882353 L37.5646196,38.9882353 Z M25.9825848,23.6 C25.9825848,24.1960814 26.0858529,24.7215664 26.2923923,25.1764706 C26.4989317,25.6313748 26.7888768,26.0352924 27.1622365,26.3882353 C27.5355961,26.7411782 27.9764716,27.0549006 28.4848763,27.3294118 C28.9932809,27.6039229 29.5493401,27.8509793 30.1530706,28.0705882 L30.8918423,19.3647059 C30.0180219,19.4745104 29.2713138,19.6588222 28.6516957,19.9176471 C28.0320776,20.1764719 27.5236806,20.4941158 27.1264895,20.8705882 C26.7292984,21.2470607 26.4393532,21.6666644 26.2566453,22.1294118 C26.0739374,22.5921592 25.9825848,23.0823504 25.9825848,23.6 L25.9825848,23.6 Z" id="$" fill="#FFFFFF" sketch:type="MSShapeGroup"></path>
        </g>
    </g>
</svg>