<?xml version="1.0" encoding="UTF-8" standalone="no"?>
<svg width="64px" height="64px" viewBox="0 0 64 64" version="1.1" xmlns="http://www.w3.org/2000/svg" xmlns:xlink="http://www.w3.org/1999/xlink" xmlns:sketch="http://www.bohemiancoding.com/sketch/ns">
    <!-- Generator: Sketch 3.4 (15575) - http://www.bohemiancoding.com/sketch -->
    <title>c-currency-pound</title>
    <desc>Created with Sketch.</desc>
    <defs></defs>
    <g id="Page-1" stroke="none" stroke-width="1" fill="none" fill-rule="evenodd" sketch:type="MSPage">
        <g id="c-currency-pound" sketch:type="MSArtboardGroup">
            <path d="M32,64 C49.673112,64 64,49.673112 64,32 C64,14.326888 49.673112,0 32,0 C14.326888,0 0,14.326888 0,32 C0,49.673112 14.326888,64 32,64 Z" id="Oval-1" fill="#A5D6E6" sketch:type="MSShapeGroup"></path>
            <path d="M19,32.74487 C19,32.2022317 19.1685978,31.7354101 19.5057984,31.3443912 C19.842999,30.9533724 20.3407639,30.7578659 20.9991079,30.7578659 L23.6003568,30.7578659 L23.6003568,25.1080711 C23.6003568,23.6078356 23.8251539,22.1834313 24.2747547,20.8348153 C24.7243555,19.4861994 25.4067751,18.3051806 26.3220339,17.2917237 C27.2372927,16.2782667 28.3853633,15.4762911 29.7662801,14.8857729 C31.1471969,14.2952547 32.768947,14 34.6315789,14 C35.9161527,14 37.0682375,14.1635871 38.087868,14.4907661 C39.1074984,14.8179451 40.014715,15.2608271 40.809545,15.8194254 C41.6043751,16.3780238 42.2948231,17.0363619 42.8809099,17.7944596 C43.4669967,18.5525574 43.9687758,19.3704926 44.3862623,20.24829 L42.0017841,21.7564979 C41.4879546,22.0118572 41.0303321,22.1395349 40.6289028,22.1395349 C40.0347874,22.1395349 39.5049087,21.8761996 39.0392507,21.3495212 C38.7341644,20.9984023 38.4330969,20.6752181 38.1360393,20.379959 C37.8389816,20.0846998 37.5178429,19.8333344 37.1726137,19.625855 C36.8273845,19.4183756 36.4500467,19.2587785 36.0405888,19.1470588 C35.6311309,19.0353392 35.1614656,18.9794802 34.6315789,18.9794802 C32.9776902,18.9794802 31.7413065,19.5181205 30.9223907,20.5954172 C30.1034749,21.672714 29.6940232,23.1689371 29.6940232,25.0841313 L29.6940232,30.7578659 L39.5450491,30.7578659 L39.5450491,33.1039672 C39.5450491,33.487006 39.388494,33.8381197 39.0753791,34.1573187 C38.7622643,34.4765178 38.3568268,34.6361149 37.8590544,34.6361149 L29.6940232,34.6361149 L29.6940232,39.2804378 C29.6940232,40.3337946 29.4973258,41.2714277 29.1039251,42.0933653 C28.7105243,42.9153028 28.1686029,43.6773791 27.4781445,44.379617 C28.6663753,44.1082978 29.8465597,43.9726402 31.0187333,43.9726402 L45.132917,43.9726402 L45.132917,46.4623803 C45.132917,46.7496594 45.0727035,47.0449141 44.9522748,47.3481532 C44.831846,47.6513923 44.659234,47.9266973 44.4344335,48.1740766 C44.2096331,48.4214559 43.9406795,48.6209523 43.6275647,48.7725718 C43.3144498,48.9241914 42.9652116,49 42.5798394,49 L19.4817128,49 L19.4817128,45.2893297 C20.0276566,45.1616501 20.5495069,44.9821033 21.0472792,44.750684 C21.5450516,44.5192647 21.9826029,44.22401 22.3599465,43.8649111 C22.73729,43.5058122 23.0383575,43.0828798 23.2631579,42.5961012 C23.4879583,42.1093227 23.6003568,41.538763 23.6003568,40.8844049 L23.6003568,34.6361149 L19,34.6361149 L19,32.74487 Z" id="£" fill="#FFFFFF" sketch:type="MSShapeGroup"></path>
        </g>
    </g>
</svg>