<?xml version="1.0" encoding="UTF-8" standalone="no"?>
<svg width="64px" height="64px" viewBox="0 0 64 64" version="1.1" xmlns="http://www.w3.org/2000/svg" xmlns:xlink="http://www.w3.org/1999/xlink" xmlns:sketch="http://www.bohemiancoding.com/sketch/ns">
    <!-- Generator: Sketch 3.4 (15575) - http://www.bohemiancoding.com/sketch -->
    <title>c-cut</title>
    <desc>Created with Sketch.</desc>
    <defs></defs>
    <g id="Page-1" stroke="none" stroke-width="1" fill="none" fill-rule="evenodd" sketch:type="MSPage">
        <g id="c-cut" sketch:type="MSArtboardGroup">
            <path d="M32,64 C49.673112,64 64,49.673112 64,32 C64,14.326888 49.673112,0 32,0 C14.326888,0 0,14.326888 0,32 C0,49.673112 14.326888,64 32,64 Z" id="Oval-1" fill="#1191BB" sketch:type="MSShapeGroup"></path>
            <g id="Oval-173-+-Oval-173" sketch:type="MSLayerGroup" transform="translate(31.664126, 31.951732) rotate(201.000000) translate(-31.664126, -31.951732) translate(11.164126, 10.951732)" fill="#FFFFFF">
                <path d="M14,21 C14,23.7614237 10.8659932,26 7,26 C3.13400675,26 0,23.7614237 0,21 C0,18.2385763 3.13400675,16 7,16 C9.71468788,16 12.0684477,17.1037978 13.2296054,18.7173405 C17.4512069,17.8199282 24.3870094,17 31,17 C37,17 41,19.0670034 41,21 C34.7955743,21 21.3021736,21 14,21 Z M11.6760723,19.935466 C11.8853997,20.2663015 12,20.6251209 12,21 C12,22.6568542 9.76142375,24 7,24 C4.23857625,24 2,22.6568542 2,21 C2,19.3431458 4.23857625,18 7,18 C8.83914804,18 10.4463739,18.5957862 11.3148041,19.4832344 C11.3345378,19.6268227 11.4791506,19.7803971 11.6760723,19.935466 Z" id="Oval-173" sketch:type="MSShapeGroup"></path>
                <path d="M14,21 C14,23.7614237 10.8659932,26 7,26 C3.13400675,26 0,23.7614237 0,21 C0,18.2385763 3.13400675,16 7,16 C9.71468788,16 12.0684477,17.1037978 13.2296054,18.7173405 C17.4512069,17.8199282 24.3870094,17 31,17 C37,17 41,19.0670034 41,21 L14,21 Z M11.6760723,19.935466 C11.8853997,20.2663015 12,20.6251209 12,21 C12,22.6568542 9.76142375,24 7,24 C4.23857625,24 2,22.6568542 2,21 C2,19.3431458 4.23857625,18 7,18 C8.83914804,18 10.4463739,18.5957862 11.3148041,19.4832344 C11.3345378,19.6268227 11.4791506,19.7803971 11.6760723,19.935466 Z" id="Oval-173" sketch:type="MSShapeGroup" transform="translate(20.500000, 21.000000) scale(1, -1) rotate(-60.000000) translate(-20.500000, -21.000000) "></path>
            </g>
        </g>
    </g>
</svg>