<?xml version="1.0" encoding="UTF-8" standalone="no"?>
<svg width="64px" height="64px" viewBox="0 0 64 64" version="1.1" xmlns="http://www.w3.org/2000/svg" xmlns:xlink="http://www.w3.org/1999/xlink" xmlns:sketch="http://www.bohemiancoding.com/sketch/ns">
    <!-- Generator: Sketch 3.4 (15575) - http://www.bohemiancoding.com/sketch -->
    <title>c-disc</title>
    <desc>Created with Sketch.</desc>
    <defs>
        <path d="M32,64 C49.673112,64 64,49.673112 64,32 C64,14.326888 49.673112,0 32,0 C14.326888,0 0,14.326888 0,32 C0,49.673112 14.326888,64 32,64 Z M32,43 C38.0751322,43 43,38.0751322 43,32 C43,25.9248678 38.0751322,21 32,21 C25.9248678,21 21,25.9248678 21,32 C21,38.0751322 25.9248678,43 32,43 Z" id="path-1"></path>
    </defs>
    <g id="Page-1" stroke="none" stroke-width="1" fill="none" fill-rule="evenodd" sketch:type="MSPage">
        <g id="c-disc" sketch:type="MSArtboardGroup">
            <g id="Oval-1">
                <use stroke-opacity="0.2" stroke="#000000" stroke-width="2" fill="#93BECC" fill-rule="evenodd" sketch:type="MSShapeGroup" xlink:href="#path-1"></use>
                <use stroke="none" fill="" fill-rule="evenodd" xlink:href="#path-1"></use>
                <use stroke="none" fill="none" xlink:href="#path-1"></use>
            </g>
            <path d="M32,43 C38.0751322,43 43,38.0751322 43,32 C43,25.9248678 38.0751322,21 32,21 C25.9248678,21 21,25.9248678 21,32 C21,38.0751322 25.9248678,43 32,43 Z M32,40 C36.418278,40 40,36.418278 40,32 C40,27.581722 36.418278,24 32,24 C27.581722,24 24,27.581722 24,32 C24,36.418278 27.581722,40 32,40 Z" id="Oval-1" opacity="0.5" fill="#93BECC" sketch:type="MSShapeGroup"></path>
        </g>
    </g>
</svg>