<?xml version="1.0" encoding="UTF-8" standalone="no"?>
<svg width="64px" height="64px" viewBox="0 0 64 64" version="1.1" xmlns="http://www.w3.org/2000/svg" xmlns:xlink="http://www.w3.org/1999/xlink" xmlns:sketch="http://www.bohemiancoding.com/sketch/ns">
    <!-- Generator: Sketch 3.4 (15575) - http://www.bohemiancoding.com/sketch -->
    <title>c-documents</title>
    <desc>Created with Sketch.</desc>
    <defs></defs>
    <g id="Page-1" stroke="none" stroke-width="1" fill="none" fill-rule="evenodd" sketch:type="MSPage">
        <g id="c-documents" sketch:type="MSArtboardGroup">
            <path d="M32,64 C49.673112,64 64,49.673112 64,32 C64,14.326888 49.673112,0 32,0 C14.326888,0 0,14.326888 0,32 C0,49.673112 14.326888,64 32,64 Z" id="Oval-1" fill="#1191BB" sketch:type="MSShapeGroup"></path>
            <path d="M18,14 L43,14 L43,46 L18,46 L18,14 Z M33,14 L43,14 L43,24 L33,24 L33,14 Z" id="Rectangle-50" fill="#FFFFFF" sketch:type="MSShapeGroup"></path>
            <path d="M35,15.5 L41.5,22 L35,22 L35,15.5 Z" id="Rectangle-52" fill="#FFFFFF" sketch:type="MSShapeGroup"></path>
            <path d="M45,22 L47,22 L47,50 L22,50 L22,48 L45,48 L45,22 Z" id="Rectangle-50" fill="#FFFFFF" sketch:type="MSShapeGroup"></path>
        </g>
    </g>
</svg>