<?xml version="1.0" encoding="UTF-8" standalone="no"?>
<svg width="64px" height="64px" viewBox="0 0 64 64" version="1.1" xmlns="http://www.w3.org/2000/svg" xmlns:xlink="http://www.w3.org/1999/xlink" xmlns:sketch="http://www.bohemiancoding.com/sketch/ns">
    <!-- Generator: Sketch 3.4 (15575) - http://www.bohemiancoding.com/sketch -->
    <title>c-eye-open</title>
    <desc>Created with Sketch.</desc>
    <defs></defs>
    <g id="Page-1" stroke="none" stroke-width="1" fill="none" fill-rule="evenodd" sketch:type="MSPage">
        <g id="c-eye-open" sketch:type="MSArtboardGroup">
            <path d="M32,64 C49.673112,64 64,49.673112 64,32 C64,14.326888 49.673112,0 32,0 C14.326888,0 0,14.326888 0,32 C0,49.673112 14.326888,64 32,64 Z" id="Oval-1" fill="#1191BB" sketch:type="MSShapeGroup"></path>
            <path d="M32,44 C42.627417,44 49,32 49,32 C49,32 42.627417,20 32,20 C21.372583,20 15,32 15,32 C15,32 21.372583,44 32,44 Z M32,42 C40.4578728,42 46.5,32 46.5,32 C46.5,32 40.4578728,22 32,22 C23.5421272,22 17.5,32 17.5,32 C17.5,32 23.5421272,42 32,42 Z" id="Oval-169" fill="#FFFFFF" sketch:type="MSShapeGroup"></path>
            <path d="M32,40 C36.418278,40 40,36.418278 40,32 C40,27.581722 36.418278,24 32,24 C27.581722,24 24,27.581722 24,32 C24,36.418278 27.581722,40 32,40 Z M32,36 C34.209139,36 36,34.209139 36,32 C36,29.790861 34.209139,28 32,28 C29.790861,28 28,29.790861 28,32 C28,34.209139 29.790861,36 32,36 Z" id="Oval-171" fill="#FFFFFF" sketch:type="MSShapeGroup"></path>
        </g>
    </g>
</svg>