<?xml version="1.0" encoding="UTF-8" standalone="no"?>
<svg width="64px" height="64px" viewBox="0 0 64 64" version="1.1" xmlns="http://www.w3.org/2000/svg" xmlns:xlink="http://www.w3.org/1999/xlink" xmlns:sketch="http://www.bohemiancoding.com/sketch/ns">
    <!-- Generator: Sketch 3.4 (15575) - http://www.bohemiancoding.com/sketch -->
    <title>c-folder-open</title>
    <desc>Created with Sketch.</desc>
    <defs></defs>
    <g id="Page-1" stroke="none" stroke-width="1" fill="none" fill-rule="evenodd" sketch:type="MSPage">
        <g id="c-folder-open" sketch:type="MSArtboardGroup">
            <path d="M32,64 C49.673112,64 64,49.673112 64,32 C64,14.326888 49.673112,0 32,0 C14.326888,0 0,14.326888 0,32 C0,49.673112 14.326888,64 32,64 Z" id="Oval-1" fill="#1191BB" sketch:type="MSShapeGroup"></path>
            <path d="M52,22 C52,16.4771525 47.5228475,12 42,12 L42,14 C46.418278,14 50,17.581722 50,22 L52,22 Z" id="Oval-179" fill="#FFFFFF" sketch:type="MSShapeGroup"></path>
            <path d="M42,29 L42,19 L14,19 L14,45 L14.4,45 L24,29 L42,29 Z M17,15 L25,15 L28,19 L14,19 L17,15 Z M25.5,31 L52,31 L44,45 L17.5,45 L25.5,31 Z" id="Rectangle-95" fill="#FFFFFF" sketch:type="MSShapeGroup"></path>
            <path d="M47,22 L55,22 L51,26.5 L47,22 Z" id="Rectangle-113" fill="#FFFFFF" sketch:type="MSShapeGroup"></path>
        </g>
    </g>
</svg>