<?xml version="1.0" encoding="UTF-8" standalone="no"?>
<svg width="64px" height="64px" viewBox="0 0 64 64" version="1.1" xmlns="http://www.w3.org/2000/svg" xmlns:xlink="http://www.w3.org/1999/xlink" xmlns:sketch="http://www.bohemiancoding.com/sketch/ns">
    <!-- Generator: Sketch 3.4 (15575) - http://www.bohemiancoding.com/sketch -->
    <title>c-folder-file</title>
    <desc>Created with Sketch.</desc>
    <defs></defs>
    <g id="Page-1" stroke="none" stroke-width="1" fill="none" fill-rule="evenodd" sketch:type="MSPage">
        <g id="c-folder-file" sketch:type="MSArtboardGroup">
            <path d="M32,64 C49.673112,64 64,49.673112 64,32 C64,14.326888 49.673112,0 32,0 C14.326888,0 0,14.326888 0,32 C0,49.673112 14.326888,64 32,64 Z" id="Oval-1" fill="#1191BB" sketch:type="MSShapeGroup"></path>
            <path d="M14.4,45 L14,45 L14,19 L18,19 L18,39 L14.4,45 Z M42,29 L42,19 L40,19 L40,29 L42,29 Z M18,15 L17,15 L14,19 L18,19 L18,15 Z M25.5,31 L52,31 L44,45 L17.5,45 L25.5,31 Z" id="Rectangle-95" fill="#FFFFFF" sketch:type="MSShapeGroup"></path>
            <path d="M38,29 L38,10 L20,10 L20,35.6666667 L24,29 L38,29 Z" id="Rectangle-108" fill="#FFFFFF" sketch:type="MSShapeGroup"></path>
        </g>
    </g>
</svg>