<?xml version="1.0" encoding="UTF-8" standalone="no"?>
<svg width="64px" height="64px" viewBox="0 0 64 64" version="1.1" xmlns="http://www.w3.org/2000/svg" xmlns:xlink="http://www.w3.org/1999/xlink" xmlns:sketch="http://www.bohemiancoding.com/sketch/ns">
    <!-- Generator: Sketch 3.4 (15575) - http://www.bohemiancoding.com/sketch -->
    <title>c-gear</title>
    <desc>Created with Sketch.</desc>
    <defs></defs>
    <g id="Page-1" stroke="none" stroke-width="1" fill="none" fill-rule="evenodd" sketch:type="MSPage">
        <g id="c-gear" sketch:type="MSArtboardGroup">
            <path d="M32,64 C49.673112,64 64,49.673112 64,32 C64,14.326888 49.673112,0 32,0 C14.326888,0 0,14.326888 0,32 C0,49.673112 14.326888,64 32,64 Z" id="Oval-1" fill="#1191BB" sketch:type="MSShapeGroup"></path>
            <path d="M32,47 C40.2842712,47 47,40.2842712 47,32 C47,23.7157288 40.2842712,17 32,17 C23.7157288,17 17,23.7157288 17,32 C17,40.2842712 23.7157288,47 32,47 Z M32,38 C35.3137085,38 38,35.3137085 38,32 C38,28.6862915 35.3137085,26 32,26 C28.6862915,26 26,28.6862915 26,32 C26,35.3137085 28.6862915,38 32,38 Z" id="Oval-1" fill="#FFFFFF" sketch:type="MSShapeGroup"></path>
            <path d="M30,13 L34,13 L35,20 L29,20 L30,13 Z M44.0208153,17.1507576 L46.8492424,19.9791847 L42.6066017,25.636039 L38.363961,21.3933983 L44.0208153,17.1507576 Z M51,30 L51,34 L44,35 L44,29 L51,30 Z M46.8492424,44.0208153 L44.0208153,46.8492424 L38.363961,42.6066017 L42.6066017,38.363961 L46.8492424,44.0208153 Z M34,51 L30,51 L29,44 L35,44 L34,51 Z M19.9791847,46.8492424 L17.1507576,44.0208153 L21.3933983,38.363961 L25.636039,42.6066017 L19.9791847,46.8492424 Z M13,34 L13,30 L20,29 L20,35 L13,34 Z M17.1507576,19.9791847 L19.9791847,17.1507576 L25.636039,21.3933983 L21.3933983,25.636039 L17.1507576,19.9791847 Z" id="Rectangle-35" fill="#FFFFFF" sketch:type="MSShapeGroup"></path>
        </g>
    </g>
</svg>