<?xml version="1.0" encoding="UTF-8" standalone="no"?>
<svg width="64px" height="64px" viewBox="0 0 64 64" version="1.1" xmlns="http://www.w3.org/2000/svg" xmlns:xlink="http://www.w3.org/1999/xlink" xmlns:sketch="http://www.bohemiancoding.com/sketch/ns">
    <!-- Generator: Sketch 3.4 (15575) - http://www.bohemiancoding.com/sketch -->
    <title>c-hot</title>
    <desc>Created with Sketch.</desc>
    <defs></defs>
    <g id="Page-1" stroke="none" stroke-width="1" fill="none" fill-rule="evenodd" sketch:type="MSPage">
        <g id="c-hot" sketch:type="MSArtboardGroup">
            <path d="M32,64 C49.673112,64 64,49.673112 64,32 C64,14.326888 49.673112,0 32,0 C14.326888,0 0,14.326888 0,32 C0,49.673112 14.326888,64 32,64 Z" id="Oval-1" fill="#CC4628" sketch:type="MSShapeGroup"></path>
            <path d="M36.7197118,50.1167275 C41.5660323,48.2276077 45,43.5148269 45,38 C45,27.8202983 35,16 28,13 C29.5,24 19,26 19,38 C19,44.0764047 23.1689417,49.1791009 28.8025999,50.6038635 C27.1091338,49.1835486 26,46.8143585 26,44.1315789 C26,36.8684211 31.25,35.6578947 30.5,29 C34,30.8157895 39,37.9701805 39,44.1315789 C39,46.5276318 38.1152781,48.6735442 36.7197118,50.1167275 Z" id="Oval-165" fill="#FFFFFF" sketch:type="MSShapeGroup"></path>
        </g>
    </g>
</svg>