<?xml version="1.0" encoding="UTF-8" standalone="no"?>
<svg width="64px" height="64px" viewBox="0 0 64 64" version="1.1" xmlns="http://www.w3.org/2000/svg" xmlns:xlink="http://www.w3.org/1999/xlink" xmlns:sketch="http://www.bohemiancoding.com/sketch/ns">
    <!-- Generator: Sketch 3.4 (15575) - http://www.bohemiancoding.com/sketch -->
    <title>c-information</title>
    <desc>Created with Sketch.</desc>
    <defs></defs>
    <g id="Page-1" stroke="none" stroke-width="1" fill="none" fill-rule="evenodd" sketch:type="MSPage">
        <g id="c-information" sketch:type="MSArtboardGroup">
            <path d="M32,64 C49.673112,64 64,49.673112 64,32 C64,14.326888 49.673112,0 32,0 C14.326888,0 0,14.326888 0,32 C0,49.673112 14.326888,64 32,64 Z" id="Oval-1" fill="#A5D6E6" sketch:type="MSShapeGroup"></path>
            <path d="M35,24 L35,50 L29,50 L29,24 L35,24 L35,24 Z M36,17.0383387 C36,17.5836023 35.8902965,18.0947793 35.6708861,18.571885 C35.4514757,19.0489907 35.1603394,19.4664519 34.7974684,19.8242812 C34.4345973,20.1821104 34.0084413,20.4675176 33.5189873,20.6805112 C33.0295334,20.8935048 32.5063319,21 31.9493671,21 C31.40928,21 30.8987366,20.8935048 30.4177215,20.6805112 C29.9367065,20.4675176 29.5189891,20.1821104 29.164557,19.8242812 C28.8101248,19.4664519 28.5274272,19.0489907 28.3164557,18.571885 C28.1054842,18.0947793 28,17.5836023 28,17.0383387 C28,16.4760355 28.1054842,15.9478193 28.3164557,15.4536741 C28.5274272,14.9595289 28.8101248,14.5335481 29.164557,14.1757188 C29.5189891,13.8178896 29.9367065,13.5324824 30.4177215,13.3194888 C30.8987366,13.1064952 31.40928,13 31.9493671,13 C32.5063319,13 33.0295334,13.1064952 33.5189873,13.3194888 C34.0084413,13.5324824 34.4345973,13.8178896 34.7974684,14.1757188 C35.1603394,14.5335481 35.4514757,14.9595289 35.6708861,15.4536741 C35.8902965,15.9478193 36,16.4760355 36,17.0383387 L36,17.0383387 L36,17.0383387 Z" id="i" fill="#FFFFFF" sketch:type="MSShapeGroup"></path>
        </g>
    </g>
</svg>