<?xml version="1.0" encoding="UTF-8" standalone="no"?>
<svg width="64px" height="64px" viewBox="0 0 64 64" version="1.1" xmlns="http://www.w3.org/2000/svg" xmlns:xlink="http://www.w3.org/1999/xlink" xmlns:sketch="http://www.bohemiancoding.com/sketch/ns">
    <!-- Generator: Sketch 3.4 (15575) - http://www.bohemiancoding.com/sketch -->
    <title>c-key</title>
    <desc>Created with Sketch.</desc>
    <defs></defs>
    <g id="Page-1" stroke="none" stroke-width="1" fill="none" fill-rule="evenodd" sketch:type="MSPage">
        <g id="c-key" sketch:type="MSArtboardGroup">
            <circle id="Oval-1" fill="#1191BB" sketch:type="MSShapeGroup" cx="32" cy="32" r="32"></circle>
            <path d="M32.2501194,36 C30.6499812,40.0973569 26.6639649,43 22,43 C15.9248678,43 11,38.0751322 11,32 C11,25.9248678 15.9248678,21 22,21 C26.6639649,21 30.6499812,23.9026431 32.2501194,28 L49,28 L53,32 L49,36 L48,36 L45,34 L42,36 L39,34 L36,36 L32.2501194,36 Z M19,36 C21.209139,36 23,34.209139 23,32 C23,29.790861 21.209139,28 19,28 C16.790861,28 15,29.790861 15,32 C15,34.209139 16.790861,36 19,36 Z" id="Oval-188" fill="#FFCC00" sketch:type="MSShapeGroup"></path>
        </g>
    </g>
</svg>