<?xml version="1.0" encoding="UTF-8" standalone="no"?>
<svg width="64px" height="64px" viewBox="0 0 64 64" version="1.1" xmlns="http://www.w3.org/2000/svg" xmlns:xlink="http://www.w3.org/1999/xlink" xmlns:sketch="http://www.bohemiancoding.com/sketch/ns">
    <!-- Generator: Sketch 3.4 (15575) - http://www.bohemiancoding.com/sketch -->
    <title>c-lightbulb</title>
    <desc>Created with Sketch.</desc>
    <defs></defs>
    <g id="Page-1" stroke="none" stroke-width="1" fill="none" fill-rule="evenodd" sketch:type="MSPage">
        <g id="c-lightbulb" sketch:type="MSArtboardGroup">
            <path d="M32,64 C49.673112,64 64,49.673112 64,32 C64,14.326888 49.673112,0 32,0 C14.326888,0 0,14.326888 0,32 C0,49.673112 14.326888,64 32,64 Z" id="Oval-1" fill="#1191BB" sketch:type="MSShapeGroup"></path>
            <path d="M37.2408467,37.5183066 C40.0965328,35.7576152 42,32.6010969 42,29 C42,23.4771525 37.5228475,19 32,19 C26.4771525,19 22,23.4771525 22,29 C22,32.6010969 23.9034672,35.7576152 26.7591533,37.5183066 L29,42 L35,42 L37.2408467,37.5183066 Z" id="Oval-20" fill="#FFCC00" sketch:type="MSShapeGroup"></path>
            <rect id="Rectangle-25" fill="#D8D8D8" sketch:type="MSShapeGroup" x="29" y="44" width="6" height="6"></rect>
            <path d="M29.8371611,9.94405114 C29.6509522,9.42266609 29.8476143,8.72190856 30.2773116,8.3781507 L30.4309077,8.25527381 C31.2974935,7.56200523 32.6963894,7.55711151 33.5690923,8.25527383 L33.7226884,8.37815072 C34.1519857,8.72158861 34.3511004,9.41691878 34.1628389,9.94405117 L32,16 L29.8371611,9.94405114 Z M45.5284133,15.4267583 C45.8164205,14.9539285 46.4847749,14.6657627 47.0223422,14.7833664 L47.2144967,14.8254041 C48.2986276,15.0625796 49.1827845,16.1466462 49.1894202,17.2642315 L49.190588,17.460927 C49.1938523,18.0106862 48.7787862,18.6030129 48.2506505,18.7884413 L42.1831757,20.9187319 L45.5284133,15.4267583 Z M51.0636368,31.1376145 C51.6135466,31.0734641 52.2521044,31.422722 52.490391,31.9187349 L52.5755669,32.0960356 C53.0561277,33.0963623 52.7462129,34.4605055 51.869629,35.1537887 L51.7153498,35.2758068 C51.2841433,35.6168446 50.5618433,35.6544408 50.090571,35.3524254 L44.6763686,31.8827278 L51.0636368,31.1376145 Z M13.909429,35.3524254 C13.4432949,35.6511479 12.7162584,35.6171624 12.2846502,35.2758069 L12.130371,35.1537887 C11.2599315,34.465365 10.9404801,33.1034235 11.4244331,32.0960356 L11.5096091,31.9187349 C11.7476738,31.4231837 12.3803916,31.072757 12.9363633,31.1376144 L19.3236314,31.8827278 L13.909429,35.3524254 Z M15.7493495,18.7884413 C15.2269721,18.6050346 14.8061447,18.0111984 14.8094119,17.460927 L14.8105798,17.2642315 C14.817169,16.1544799 15.6937196,15.0642538 16.7855034,14.8254041 L16.9776578,14.7833664 C17.5147247,14.6658722 18.1804047,14.9487164 18.4715867,15.4267583 L21.8168243,20.9187319 L15.7493495,18.7884413 Z" id="Rectangle-26" fill="#FFCC00" sketch:type="MSShapeGroup"></path>
        </g>
    </g>
</svg>