<?xml version="1.0" encoding="UTF-8" standalone="no"?>
<svg width="64px" height="64px" viewBox="0 0 64 64" version="1.1" xmlns="http://www.w3.org/2000/svg" xmlns:xlink="http://www.w3.org/1999/xlink" xmlns:sketch="http://www.bohemiancoding.com/sketch/ns">
    <!-- Generator: Sketch 3.4 (15575) - http://www.bohemiancoding.com/sketch -->
    <title>c-moon</title>
    <desc>Created with Sketch.</desc>
    <defs></defs>
    <g id="Page-1" stroke="none" stroke-width="1" fill="none" fill-rule="evenodd" sketch:type="MSPage">
        <g id="c-moon" sketch:type="MSArtboardGroup">
            <path d="M32,64 C49.673112,64 64,49.673112 64,32 C64,14.326888 49.673112,0 32,0 C14.326888,0 0,14.326888 0,32 C0,49.673112 14.326888,64 32,64 Z" id="Oval-1" fill="#9B9B9B" sketch:type="MSShapeGroup"></path>
            <path d="M49.0710832,4.92891682 C52.1930876,9.86937069 54,15.7236718 54,22 C54,39.673112 39.673112,54 22,54 C15.7236718,54 9.86937069,52.1930876 4.92891682,49.0710832 C1.80691237,44.1306293 0,38.2763282 0,32 C0,14.326888 14.326888,0 32,0 C38.2763282,0 44.1306293,1.80691237 49.0710832,4.92891682 Z" id="Oval-1" fill-opacity="0.200000018" fill="#FFFFFF" sketch:type="MSShapeGroup"></path>
            <path d="M42.3046439,1.69535609 C43.4038102,4.92884765 44,8.39480003 44,12 C44,29.673112 29.673112,44 12,44 C8.39480003,44 4.92884765,43.4038102 1.69535609,42.3046439 C0.596189775,39.0711523 0,35.6052 0,32 C0,14.326888 14.326888,0 32,0 C35.6052,0 39.0711523,0.596189775 42.3046439,1.69535609 Z" id="Oval-1" fill-opacity="0.200000018" fill="#FFFFFF" sketch:type="MSShapeGroup"></path>
            <path d="M17.4261234,3.12268278 C19.9054012,6.05369443 15.2665208,9.97454076 16.9999998,13.9999999 C18.9387869,18.5022224 22.9999998,13.9999999 25.9999998,17.4999999 C34.1777879,27.0407527 21.479322,33.3840536 15.9999998,31.9999999 C11.1893425,30.7848481 13.4664238,24.806315 9.99999982,22.4999999 C7.67839541,20.9553674 4.26378487,20.4449814 2.08626866,19.840567 C4.99180418,12.5739714 10.4847723,6.62166007 17.4261234,3.12268278 Z M47.779864,3.97839193 C49.2190425,8.08842153 49.8106572,14.2411665 49.8106572,16.7151517 C49.8106572,20.581145 45.1766504,29.2151517 41.3106572,29.2151517 C37.4446639,29.2151517 31.8106572,18.581145 31.8106572,14.7151517 C31.8106572,12.7077444 37.1714101,12.2764831 39.9999997,8.99999992 C41.7205033,7.00706275 42.3204277,3.74832236 43.0565461,1.74708439 C44.6994279,2.36388514 46.2781228,3.11190993 47.779864,3.97839193 Z M55.7767443,52.9201084 C52.9030149,53.2938413 48.3532986,53.9015411 46.3106572,52.2151517 C44.7384459,50.917146 47.0623367,48.9464228 46.8106571,46.7151517 C46.5085604,44.0369058 43.8106572,41.0773965 43.8106572,39.7151517 C43.8106572,37.6076163 48.5266939,34.8100377 50.8106572,31.7151517 C53.3148386,28.3218589 56.4999146,21.7151517 58.8106572,21.7151517 C60.2723256,21.7151517 61.5877162,22.3260373 62.6936423,23.3035891 C63.4219623,25.9839456 63.8106572,28.8041564 63.8106572,31.7151517 C63.8106572,39.849133 60.7758427,47.2742954 55.7767443,52.9201084 Z M9.50499418,54.6598389 C13.0826392,53.0144764 15.3227425,45.7549359 13.9999997,40.7151517 C12.4999997,34.9999999 7.91827815,30.4999999 3.50000015,30.4999999 C1.88173728,30.4999999 0.685674385,31.277653 -0.180372463,32.4803948 C0.0236600693,41.1746184 3.69530858,49.010962 9.50499418,54.6598389 Z M22.5000001,59.4999999 C23.9511809,59.4999999 27.5020199,57.0520399 29.4999997,56.9999999 C32.8247036,56.9134037 39.4999997,60.9148124 39.4999997,58.4999999 C39.4999997,54.6340067 34.6766504,45.7151517 30.8106572,45.7151517 C29.3623397,45.7151517 26.9804456,47.1638988 24.8106572,47.2151517 C21.1886301,47.3007082 17.8106572,46.2974759 17.8106572,48.7151517 C17.8106572,52.581145 18.6340069,59.4999999 22.5000001,59.4999999 Z M22.9999999,40.9999999 C23.296222,42.0367772 38.0000005,41.4148124 38.0000005,38.9999999 C38.0000005,35.1340067 34.6766504,32.7151517 30.8106572,32.7151517 C29.3623397,32.7151517 26.9804456,34.1638988 24.8106572,34.2151517 C21.1886301,34.3007082 22,37.4999999 22.9999999,40.9999999 Z" id="Oval-200" opacity="0.049999997" fill="#000000" sketch:type="MSShapeGroup"></path>
        </g>
    </g>
</svg>