<?xml version="1.0" encoding="UTF-8" standalone="no"?>
<svg width="64px" height="64px" viewBox="0 0 64 64" version="1.1" xmlns="http://www.w3.org/2000/svg" xmlns:xlink="http://www.w3.org/1999/xlink" xmlns:sketch="http://www.bohemiancoding.com/sketch/ns">
    <!-- Generator: Sketch 3.4 (15575) - http://www.bohemiancoding.com/sketch -->
    <title>c-no-entry</title>
    <desc>Created with Sketch.</desc>
    <defs></defs>
    <g id="Page-1" stroke="none" stroke-width="1" fill="none" fill-rule="evenodd" sketch:type="MSPage">
        <g id="c-no-entry" sketch:type="MSArtboardGroup">
            <circle id="Oval-1" fill="#CC4628" sketch:type="MSShapeGroup" cx="32" cy="32" r="32"></circle>
            <path d="M32,52 C43.045695,52 52,43.045695 52,32 C52,20.954305 43.045695,12 32,12 C20.954305,12 12,20.954305 12,32 C12,43.045695 20.954305,52 32,52 Z M32,48 C40.836556,48 48,40.836556 48,32 C48,23.163444 40.836556,16 32,16 C23.163444,16 16,23.163444 16,32 C16,40.836556 23.163444,48 32,48 Z" id="Oval-1" fill="#FFFFFF" sketch:type="MSShapeGroup"></path>
            <path d="M17,43.8700577 L43.8700577,17 L46.6984848,19.8284271 L19.8284271,46.6984848 L17,43.8700577 L17,43.8700577 Z" id="Rectangle-31" fill="#FFFFFF" sketch:type="MSShapeGroup"></path>
        </g>
    </g>
</svg>