<?xml version="1.0" encoding="UTF-8" standalone="no"?>
<svg width="64px" height="64px" viewBox="0 0 64 64" version="1.1" xmlns="http://www.w3.org/2000/svg" xmlns:xlink="http://www.w3.org/1999/xlink" xmlns:sketch="http://www.bohemiancoding.com/sketch/ns">
    <!-- Generator: Sketch 3.4 (15575) - http://www.bohemiancoding.com/sketch -->
    <title>c-ohm</title>
    <desc>Created with Sketch.</desc>
    <defs></defs>
    <g id="Page-1" stroke="none" stroke-width="1" fill="none" fill-rule="evenodd" sketch:type="MSPage">
        <g id="c-ohm" sketch:type="MSArtboardGroup">
            <path d="M32,64 C49.673112,64 64,49.673112 64,32 C64,14.326888 49.673112,0 32,0 C14.326888,0 0,14.326888 0,32 C0,49.673112 14.326888,64 32,64 Z" id="Oval-1" fill="#A5D6E6" sketch:type="MSShapeGroup"></path>
            <path d="M15,46 L15,41.562294 L24.0928962,41.562294 C21.4262162,39.5899704 19.4262362,37.4291482 18.0928962,35.0797627 C16.7595562,32.7303772 16.0928962,30.1924988 16.0928962,27.4660514 C16.0928962,23.1878494 17.5937919,19.7073305 20.5956284,17.0243902 C23.5974649,14.34145 27.4881364,13 32.2677596,13 C37.0473827,13 40.9380542,14.34145 43.9398907,17.0243902 C46.9417272,19.7073305 48.442623,23.1878494 48.442623,27.4660514 C48.442623,30.1779964 47.775963,32.7086237 46.442623,35.0580092 C45.109283,37.4073947 43.109303,39.575468 40.442623,41.562294 L49.5355191,41.562294 L49.5355191,46 L34.7377049,46 L34.7377049,41.562294 C36.9235082,39.9380275 38.5628361,37.9911122 39.6557377,35.7214898 C40.7486393,33.4518674 41.295082,30.8596059 41.295082,27.9446276 C41.295082,24.6815921 40.4899898,22.1110839 38.8797814,20.2330257 C37.269573,18.3549675 35.0655878,17.4159525 32.2677596,17.4159525 C29.4699314,17.4159525 27.2659461,18.3585931 25.6557377,20.2439024 C24.0455293,22.1292118 23.2404372,24.7033456 23.2404372,27.966381 C23.2404372,30.8813593 23.7868798,33.4699953 24.8797814,35.7323665 C25.9726831,37.9947377 27.6120109,39.9380275 29.7978142,41.562294 L29.7978142,46 L15,46 Z" id="Ω" fill="#FFFFFF" sketch:type="MSShapeGroup"></path>
        </g>
    </g>
</svg>