<?xml version="1.0" encoding="UTF-8" standalone="no"?>
<svg width="64px" height="64px" viewBox="0 0 64 64" version="1.1" xmlns="http://www.w3.org/2000/svg" xmlns:xlink="http://www.w3.org/1999/xlink" xmlns:sketch="http://www.bohemiancoding.com/sketch/ns">
    <!-- Generator: Sketch 3.4 (15575) - http://www.bohemiancoding.com/sketch -->
    <title>c-paperclip</title>
    <desc>Created with Sketch.</desc>
    <defs></defs>
    <g id="Page-1" stroke="none" stroke-width="1" fill="none" fill-rule="evenodd" sketch:type="MSPage">
        <g id="c-paperclip" sketch:type="MSArtboardGroup">
            <path d="M32,64 C49.673112,64 64,49.673112 64,32 C64,14.326888 49.673112,0 32,0 C14.326888,0 0,14.326888 0,32 C0,49.673112 14.326888,64 32,64 Z" id="Oval-1" fill="#1191BB" sketch:type="MSShapeGroup"></path>
            <path d="M24,24.9911656 C24,21.1300515 27.1419946,18 30.994557,18 L33.005443,18 C36.8684302,18 40,21.1310616 40,25.0016015 L40,41.9982174 C40,44.7606256 37.7710151,47 34.9978137,47 L33.0021863,47 C30.2395551,47 28,44.7526321 28,41.9966569 L28,29.008788 C28,27.3470803 29.3390201,26 31.0016655,26 L32.9983345,26 C34.6561086,26 36,27.3423789 36,29.0033512 L36,40 L34,40 L34,30.0085302 C34,28.8992496 33.1122704,28 32,28 L32,28 C30.8954305,28 30,28.8900584 30,30.0001062 L30,41.9998738 C30,43.6567977 31.3390201,45 33.0016655,45 L34.9983345,45 C36.6561086,45 38,43.6558914 38,42.0092478 L38,26.0040234 C38,22.6880929 35.3069658,20 32,20 L32,20 C28.6862915,20 26,22.6765363 26,26.0006595 L26,40 L24,40 L24,24.9911656 Z" id="Rectangle-152" fill="#FFFFFF" sketch:type="MSShapeGroup"></path>
        </g>
    </g>
</svg>