<?xml version="1.0" encoding="UTF-8" standalone="no"?>
<svg width="64px" height="64px" viewBox="0 0 64 64" version="1.1" xmlns="http://www.w3.org/2000/svg" xmlns:xlink="http://www.w3.org/1999/xlink" xmlns:sketch="http://www.bohemiancoding.com/sketch/ns">
    <!-- Generator: Sketch 3.4 (15575) - http://www.bohemiancoding.com/sketch -->
    <title>c-padlock-open</title>
    <desc>Created with Sketch.</desc>
    <defs></defs>
    <g id="Page-1" stroke="none" stroke-width="1" fill="none" fill-rule="evenodd" sketch:type="MSPage">
        <g id="c-padlock-open" sketch:type="MSArtboardGroup">
            <path d="M32,64 C49.673112,64 64,49.673112 64,32 C64,14.326888 49.673112,0 32,0 C14.326888,0 0,14.326888 0,32 C0,49.673112 14.326888,64 32,64 Z" id="Oval-1" fill="#FFCC00" sketch:type="MSShapeGroup"></path>
            <path d="M24,24 L24,18.9998866 C24,14.5777418 27.581722,11 32,11 C36.4092877,11 40,14.5816712 40,18.9998866 L40,29 L43,29 L43,18.5 C43,12.6997351 38.2987029,8 32.4993591,8 L31.5006409,8 C25.6925676,8 21,12.7010101 21,18.5 L21,24 L24,24 Z M18,29 L46,29 L46,49 L18,49 L18,29 Z" id="Rectangle-134" fill="#000000" sketch:type="MSShapeGroup"></path>
        </g>
    </g>
</svg>