<?xml version="1.0" encoding="UTF-8" standalone="no"?>
<svg width="64px" height="64px" viewBox="0 0 64 64" version="1.1" xmlns="http://www.w3.org/2000/svg" xmlns:xlink="http://www.w3.org/1999/xlink" xmlns:sketch="http://www.bohemiancoding.com/sketch/ns">
    <!-- Generator: Sketch 3.4 (15575) - http://www.bohemiancoding.com/sketch -->
    <title>c-phone</title>
    <desc>Created with Sketch.</desc>
    <defs></defs>
    <g id="Page-1" stroke="none" stroke-width="1" fill="none" fill-rule="evenodd" sketch:type="MSPage">
        <g id="c-phone" sketch:type="MSArtboardGroup">
            <path d="M32,64 C49.673112,64 64,49.673112 64,32 C64,14.326888 49.673112,0 32,0 C14.326888,0 0,14.326888 0,32 C0,49.673112 14.326888,64 32,64 Z" id="Oval-1" fill="#1191BB" sketch:type="MSShapeGroup"></path>
            <path d="M22,16.9999204 C22,15.8953949 22.8982124,15 23.9907951,15 L40.0092049,15 C41.1086907,15 42,15.8919411 42,16.9999204 L42,47.0000796 C42,48.1046051 41.1017876,49 40.0092049,49 L23.9907951,49 C22.8913093,49 22,48.1080589 22,47.0000796 L22,16.9999204 Z M24,18.0032996 C24,17.4491925 24.4446309,17 25.0008717,17 L38.9991283,17 C39.5518945,17 40,17.4512787 40,18.0032996 L40,41.9967004 C40,42.5508075 39.5553691,43 38.9991283,43 L25.0008717,43 C24.4481055,43 24,42.5487213 24,41.9967004 L24,18.0032996 Z M32,48 C33.1045695,48 34,47.1045695 34,46 C34,44.8954305 33.1045695,44 32,44 C30.8954305,44 30,44.8954305 30,46 C30,47.1045695 30.8954305,48 32,48 Z" id="Rectangle-158" fill="#FFFFFF" sketch:type="MSShapeGroup"></path>
        </g>
    </g>
</svg>