<?xml version="1.0" encoding="UTF-8" standalone="no"?>
<svg width="64px" height="64px" viewBox="0 0 64 64" version="1.1" xmlns="http://www.w3.org/2000/svg" xmlns:xlink="http://www.w3.org/1999/xlink" xmlns:sketch="http://www.bohemiancoding.com/sketch/ns">
    <!-- Generator: Sketch 3.4 (15575) - http://www.bohemiancoding.com/sketch -->
    <title>c-power-off</title>
    <desc>Created with Sketch.</desc>
    <defs></defs>
    <g id="Page-1" stroke="none" stroke-width="1" fill="none" fill-rule="evenodd" sketch:type="MSPage">
        <g id="c-power-off" sketch:type="MSArtboardGroup">
            <path d="M32,64 C49.673112,64 64,49.673112 64,32 C64,14.326888 49.673112,0 32,0 C14.326888,0 0,14.326888 0,32 C0,49.673112 14.326888,64 32,64 Z" id="Oval-1" fill="#CC4628" sketch:type="MSShapeGroup"></path>
            <path d="M39,13.2592154 C46.5933357,16.0966876 52,23.4169468 52,32 C52,43.045695 43.045695,52 32,52 C20.954305,52 12,43.045695 12,32 C12,23.4169468 17.4066643,16.0966876 25,13.2592154 L25,17.6084658 C19.6715295,20.2050533 16,25.6737608 16,32 C16,40.836556 23.163444,48 32,48 C40.836556,48 48,40.836556 48,32 C48,25.6737608 44.3284705,20.2050533 39,17.6084658 L39,13.2592154 Z M30,10.0058587 C30,8.89805351 30.8877296,8 32,8 C33.1045695,8 34,8.89706013 34,10.0058587 L34,19.9941413 C34,21.1019465 33.1122704,22 32,22 C30.8954305,22 30,21.1029399 30,19.9941413 L30,10.0058587 Z" id="Oval-1" fill="#FFFFFF" sketch:type="MSShapeGroup"></path>
        </g>
    </g>
</svg>