<?xml version="1.0" encoding="UTF-8" standalone="no"?>
<svg width="64px" height="64px" viewBox="0 0 64 64" version="1.1" xmlns="http://www.w3.org/2000/svg" xmlns:xlink="http://www.w3.org/1999/xlink" xmlns:sketch="http://www.bohemiancoding.com/sketch/ns">
    <!-- Generator: Sketch 3.4 (15575) - http://www.bohemiancoding.com/sketch -->
    <title>c-puzzle</title>
    <desc>Created with Sketch.</desc>
    <defs></defs>
    <g id="Page-1" stroke="none" stroke-width="1" fill="none" fill-rule="evenodd" sketch:type="MSPage">
        <g id="c-puzzle" sketch:type="MSArtboardGroup">
            <path d="M32,64 C49.673112,64 64,49.673112 64,32 C64,14.326888 49.673112,0 32,0 C14.326888,0 0,14.326888 0,32 C0,49.673112 14.326888,64 32,64 Z" id="Oval-1" fill="#1191BB" sketch:type="MSShapeGroup"></path>
            <path d="M28,46 L18,46 L18,36 C15.790861,36 14,34.209139 14,32 C14,29.790861 15.790861,28 18,28 L18,18 L28,18 C28,15.790861 29.790861,14 32,14 C34.209139,14 36,15.790861 36,18 L46,18 L46,28 C43.790861,28 42,29.790861 42,32 C42,34.209139 43.790861,36 46,36 L46,46 L36,46 C36,43.790861 34.209139,42 32,42 C29.790861,42 28,43.790861 28,46 Z" id="Rectangle-139" fill="#FFFFFF" sketch:type="MSShapeGroup"></path>
        </g>
    </g>
</svg>