<?xml version="1.0" encoding="UTF-8" standalone="no"?>
<svg width="64px" height="64px" viewBox="0 0 64 64" version="1.1" xmlns="http://www.w3.org/2000/svg" xmlns:xlink="http://www.w3.org/1999/xlink" xmlns:sketch="http://www.bohemiancoding.com/sketch/ns">
    <!-- Generator: Sketch 3.4 (15575) - http://www.bohemiancoding.com/sketch -->
    <title>c-quote</title>
    <desc>Created with Sketch.</desc>
    <defs></defs>
    <g id="Page-1" stroke="none" stroke-width="1" fill="none" fill-rule="evenodd" sketch:type="MSPage">
        <g id="c-quote" sketch:type="MSArtboardGroup">
            <path d="M32,64 C49.673112,64 64,49.673112 64,32 C64,14.326888 49.673112,0 32,0 C14.326888,0 0,14.326888 0,32 C0,49.673112 14.326888,64 32,64 Z" id="Oval-1" fill="#1191BB" sketch:type="MSShapeGroup"></path>
            <path d="M28.8761329,38.576 C28.8761329,40.8186779 28.1490506,42.6166599 26.694864,43.97 C25.2406775,45.3233401 23.4038379,46 21.18429,46 C18.5055254,46 16.3051446,45.1106756 14.5830816,43.332 C12.8610186,41.5533244 12,39.00135 12,35.676 C12,32.1186489 13.0140885,28.6193505 15.0422961,25.178 C17.0705036,21.7366495 19.9214318,19.0106767 23.5951662,17 L26.2356495,21.06 C24.2457101,22.452007 22.6576092,23.9986582 21.4712991,25.7 C20.284989,27.4013418 19.5005054,29.3733221 19.1178248,31.616 C19.80665,31.3066651 20.6102673,31.152 21.5287009,31.152 C23.6717126,31.152 25.4320173,31.847993 26.8096677,33.24 C28.1873181,34.632007 28.8761329,36.4106558 28.8761329,38.576 L28.8761329,38.576 L28.8761329,38.576 Z M50,38.576 C50,40.8186779 49.2729176,42.6166599 47.8187311,43.97 C46.3645446,45.3233401 44.527705,46 42.3081571,46 C39.6293924,46 37.4290116,45.1106756 35.7069486,43.332 C33.9848856,41.5533244 33.1238671,39.00135 33.1238671,35.676 C33.1238671,32.1186489 34.1379556,28.6193505 36.1661631,25.178 C38.1943707,21.7366495 41.0452989,19.0106767 44.7190332,17 L47.3595166,21.06 C45.3695772,22.452007 43.7814762,23.9986582 42.5951662,25.7 C41.4088561,27.4013418 40.6243725,29.3733221 40.2416918,31.616 C40.930517,31.3066651 41.7341344,31.152 42.652568,31.152 C44.7955797,31.152 46.5558844,31.847993 47.9335347,33.24 C49.3111851,34.632007 50,36.4106558 50,38.576 L50,38.576 L50,38.576 Z" id="“" fill="#FFFFFF" sketch:type="MSShapeGroup"></path>
        </g>
    </g>
</svg>