<?xml version="1.0" encoding="UTF-8" standalone="no"?>
<svg width="64px" height="64px" viewBox="0 0 64 64" version="1.1" xmlns="http://www.w3.org/2000/svg" xmlns:xlink="http://www.w3.org/1999/xlink" xmlns:sketch="http://www.bohemiancoding.com/sketch/ns">
    <!-- Generator: Sketch 3.4 (15575) - http://www.bohemiancoding.com/sketch -->
    <title>c-question</title>
    <desc>Created with Sketch.</desc>
    <defs></defs>
    <g id="Page-1" stroke="none" stroke-width="1" fill="none" fill-rule="evenodd" sketch:type="MSPage">
        <g id="c-question" sketch:type="MSArtboardGroup">
            <path d="M32,64 C49.673112,64 64,49.673112 64,32 C64,14.326888 49.673112,0 32,0 C14.326888,0 0,14.326888 0,32 C0,49.673112 14.326888,64 32,64 Z" id="Oval-1" fill="#00BF2F" sketch:type="MSShapeGroup"></path>
            <path d="M21,16.7845528 C21.6202353,16.2696451 22.2997475,15.7804901 23.0385572,15.3170732 C23.7773669,14.8536562 24.5754518,14.4503179 25.4328358,14.1070461 C26.2902199,13.7637743 27.2205588,13.4934518 28.2238806,13.2960705 C29.2272024,13.0986892 30.3125978,13 31.4800995,13 C33.0671721,13 34.5128459,13.20596 35.8171642,13.6178862 C37.1214825,14.0298124 38.2388013,14.6176565 39.1691542,15.3814363 C40.0995071,16.1452161 40.8200638,17.0677453 41.3308458,18.1490515 C41.8416278,19.2303577 42.0970149,20.4403727 42.0970149,21.7791328 C42.0970149,23.0835657 41.8963536,24.2120549 41.4950249,25.1646341 C41.0936962,26.1172134 40.5874823,26.9453443 39.9763682,27.6490515 C39.365254,28.3527587 38.7039837,28.962057 37.9925373,29.4769648 C37.281091,29.9918725 36.6061392,30.4767367 35.9676617,30.9315718 C35.3291842,31.386407 34.7773655,31.8326536 34.3121891,32.2703252 C33.8470126,32.7079968 33.568823,33.2014426 33.4776119,33.7506775 L32.8482587,37.5094851 L28.2238806,37.5094851 L27.7587065,33.3130081 C27.7404643,33.2271902 27.7313433,33.154246 27.7313433,33.0941734 L27.7313433,32.8753388 C27.7313433,32.1201408 27.9320046,31.4636433 28.3333333,30.9058266 C28.734662,30.3480099 29.2363154,29.8245282 29.8383085,29.3353659 C30.4403015,28.8462035 31.0878904,28.369921 31.7810945,27.9065041 C32.4742987,27.4430871 33.1218875,26.9410596 33.7238806,26.4004065 C34.3258737,25.8597534 34.827527,25.2461642 35.2288557,24.5596206 C35.6301844,23.873077 35.8308458,23.0664003 35.8308458,22.1395664 C35.8308458,21.5216771 35.7077127,20.9681596 35.4614428,20.4789973 C35.2151729,19.989835 34.8731365,19.5693333 34.4353234,19.2174797 C33.9975102,18.8656261 33.4730545,18.5953036 32.8619403,18.4065041 C32.2508261,18.2177046 31.5895558,18.1233062 30.8781095,18.1233062 C29.8383033,18.1233062 28.9581296,18.2305771 28.2375622,18.445122 C27.5169947,18.6596668 26.9058897,18.8999535 26.4042289,19.1659892 C25.902568,19.4320248 25.4784429,19.6723115 25.1318408,19.8868564 C24.7852387,20.1014013 24.4751257,20.2086721 24.2014925,20.2086721 C23.5447728,20.2086721 23.0704824,19.9512221 22.778607,19.4363144 L21,16.7845528 Z M26.1716418,47.1382114 C26.1716418,46.6061401 26.2765329,46.0998217 26.4863184,45.6192412 C26.6961039,45.1386607 26.9879749,44.7267407 27.3619403,44.3834688 C27.7359057,44.040197 28.1782727,43.7655837 28.6890547,43.5596206 C29.1998367,43.3536575 29.7470949,43.2506775 30.3308458,43.2506775 C30.8963544,43.2506775 31.4344916,43.3536575 31.9452736,43.5596206 C32.4560556,43.7655837 32.8938622,44.040197 33.2587065,44.3834688 C33.6235507,44.7267407 33.9154218,45.1386607 34.1343284,45.6192412 C34.3532349,46.0998217 34.4626866,46.6061401 34.4626866,47.1382114 C34.4626866,47.6874463 34.3532349,48.1980555 34.1343284,48.6700542 C33.9154218,49.1420529 33.6235507,49.5496821 33.2587065,49.8929539 C32.8938622,50.2362257 32.4560556,50.5065482 31.9452736,50.7039295 C31.4344916,50.9013108 30.8963544,51 30.3308458,51 C29.7470949,51 29.1998367,50.9013108 28.6890547,50.7039295 C28.1782727,50.5065482 27.7359057,50.2362257 27.3619403,49.8929539 C26.9879749,49.5496821 26.6961039,49.1420529 26.4863184,48.6700542 C26.2765329,48.1980555 26.1716418,47.6874463 26.1716418,47.1382114 L26.1716418,47.1382114 Z" id="?" fill="#FFFFFF" sketch:type="MSShapeGroup"></path>
        </g>
    </g>
</svg>