<?xml version="1.0" encoding="UTF-8" standalone="no"?>
<svg width="64px" height="64px" viewBox="0 0 64 64" version="1.1" xmlns="http://www.w3.org/2000/svg" xmlns:xlink="http://www.w3.org/1999/xlink" xmlns:sketch="http://www.bohemiancoding.com/sketch/ns">
    <!-- Generator: Sketch 3.4 (15575) - http://www.bohemiancoding.com/sketch -->
    <title>c-rss-feed</title>
    <desc>Created with Sketch.</desc>
    <defs></defs>
    <g id="Page-1" stroke="none" stroke-width="1" fill="none" fill-rule="evenodd" sketch:type="MSPage">
        <g id="c-rss-feed" sketch:type="MSArtboardGroup">
            <path d="M32,64 C49.673112,64 64,49.673112 64,32 C64,14.326888 49.673112,0 32,0 C14.326888,0 0,14.326888 0,32 C0,49.673112 14.326888,64 32,64 Z" id="Oval-1" fill="#CC4628" sketch:type="MSShapeGroup"></path>
            <g id="Oval-14-+-Oval-15-+-Oval-15" sketch:type="MSLayerGroup" transform="translate(21.000000, 17.000000)" fill="#FFFFFF">
                <circle id="Oval-14" sketch:type="MSShapeGroup" cx="4.5" cy="22.5" r="4.5"></circle>
                <path d="M3.69482223e-13,8 C10.4934102,8 19,16.5065898 19,27 L16,27 C16,18.163444 8.836556,11 3.69482223e-13,11 L3.69482223e-13,8 Z" id="Oval-15" sketch:type="MSShapeGroup"></path>
                <path d="M-1.70530257e-13,0 C14.9116882,0 27,12.0883118 27,27 L24,27 C24,13.745166 13.254834,3 -1.70530257e-13,3 L-1.70530257e-13,-8.8817842e-16 Z" id="Oval-15" sketch:type="MSShapeGroup"></path>
            </g>
        </g>
    </g>
</svg>