<?xml version="1.0" encoding="UTF-8" standalone="no"?>
<svg width="64px" height="64px" viewBox="0 0 64 64" version="1.1" xmlns="http://www.w3.org/2000/svg" xmlns:xlink="http://www.w3.org/1999/xlink" xmlns:sketch="http://www.bohemiancoding.com/sketch/ns">
    <!-- Generator: Sketch 3.4 (15575) - http://www.bohemiancoding.com/sketch -->
    <title>c-smiley-very-happy</title>
    <desc>Created with Sketch.</desc>
    <defs></defs>
    <g id="Page-1" stroke="none" stroke-width="1" fill="none" fill-rule="evenodd" sketch:type="MSPage">
        <g id="c-smiley-very-happy" sketch:type="MSArtboardGroup">
            <path d="M32,64 C49.673112,64 64,49.673112 64,32 C64,14.326888 49.673112,0 32,0 C14.326888,0 0,14.326888 0,32 C0,49.673112 14.326888,64 32,64 Z" id="Oval-1" fill="#FFCC00" sketch:type="MSShapeGroup"></path>
            <circle id="Oval-206" fill="#000000" sketch:type="MSShapeGroup" cx="44" cy="23" r="6"></circle>
            <circle id="Oval-206" fill="#000000" sketch:type="MSShapeGroup" cx="20" cy="23" r="6"></circle>
            <path d="M49.9858632,39 C49.9952583,39.1658568 50,39.3325438 50,39.5 C50,46.4035594 41.9411255,52 32,52 C22.0588745,52 14,46.4035594 14,39.5 C14,39.3325438 14.0047417,39.1658568 14.0141368,39 L49.9858632,39 Z" id="Oval-221" fill="#000000" sketch:type="MSShapeGroup"></path>
        </g>
    </g>
</svg>