<?xml version="1.0" encoding="UTF-8" standalone="no"?>
<svg width="64px" height="64px" viewBox="0 0 64 64" version="1.1" xmlns="http://www.w3.org/2000/svg" xmlns:xlink="http://www.w3.org/1999/xlink" xmlns:sketch="http://www.bohemiancoding.com/sketch/ns">
    <!-- Generator: Sketch 3.4 (15575) - http://www.bohemiancoding.com/sketch -->
    <title>c-tag-green</title>
    <desc>Created with Sketch.</desc>
    <defs></defs>
    <g id="Page-1" stroke="none" stroke-width="1" fill="none" fill-rule="evenodd" sketch:type="MSPage">
        <g id="c-tag-green" sketch:type="MSArtboardGroup">
            <path d="M32,64 C49.673112,64 64,49.673112 64,32 C64,14.326888 49.673112,0 32,0 C14.326888,0 0,14.326888 0,32 C0,49.673112 14.326888,64 32,64 Z" id="Oval-1" fill="#A5D6E6" sketch:type="MSShapeGroup"></path>
            <g id="Rectangle-191-+-Rectangle-192" sketch:type="MSLayerGroup" transform="translate(32.000000, 32.500000) rotate(-45.000000) translate(-32.000000, -32.500000) translate(21.000000, 15.000000)">
                <path d="M6.92779167e-14,8 L11,-6.03961325e-14 L22,8 L22,35 L6.92779167e-14,35 L6.92779167e-14,8 Z M11,8 C12.1045695,8 13,7.1045695 13,6 C13,4.8954305 12.1045695,4 11,4 C9.8954305,4 9,4.8954305 9,6 C9,7.1045695 9.8954305,8 11,8 Z" id="Rectangle-191" fill="#FFFFFF" sketch:type="MSShapeGroup"></path>
                <rect id="Rectangle-192" fill="#00BF2F" sketch:type="MSShapeGroup" x="4" y="11" width="14" height="24"></rect>
            </g>
        </g>
    </g>
</svg>