<?xml version="1.0" encoding="UTF-8" standalone="no"?>
<svg width="64px" height="64px" viewBox="0 0 64 64" version="1.1" xmlns="http://www.w3.org/2000/svg" xmlns:xlink="http://www.w3.org/1999/xlink" xmlns:sketch="http://www.bohemiancoding.com/sketch/ns">
    <!-- Generator: Sketch 3.4 (15575) - http://www.bohemiancoding.com/sketch -->
    <title>c-user</title>
    <desc>Created with Sketch.</desc>
    <defs></defs>
    <g id="Page-1" stroke="none" stroke-width="1" fill="none" fill-rule="evenodd" sketch:type="MSPage">
        <g id="c-user" sketch:type="MSArtboardGroup">
            <path d="M32,64 C49.673112,64 64,49.673112 64,32 C64,14.326888 49.673112,0 32,0 C14.326888,0 0,14.326888 0,32 C0,49.673112 14.326888,64 32,64 Z" id="Oval-1" fill="#A5D6E6" sketch:type="MSShapeGroup"></path>
            <path d="M32,31 C36,31 40,25.5228475 40,20 C40,14.4771525 36.418278,11 32,11 C27.581722,11 24,14.4771525 24,20 C24,25.5228475 28,31 32,31 Z M18,41.9946916 C18,38.1316301 20.905847,33.8376612 24.5024853,32.3990059 L28,31 L32,37 L36,31 L39.4975147,32.3990059 C43.0887382,33.8354953 46,38.1303672 46,41.9946916 L46,48 L36.8965206,49.9507456 C34.192247,50.5302328 29.8125,50.53125 27.1034794,49.9507456 L18,48 L18,41.9946916 Z" id="Oval-238" fill="#FFFFFF" sketch:type="MSShapeGroup"></path>
        </g>
    </g>
</svg>