<?xml version="1.0" encoding="UTF-8" standalone="no"?>
<svg width="64px" height="64px" viewBox="0 0 64 64" version="1.1" xmlns="http://www.w3.org/2000/svg" xmlns:xlink="http://www.w3.org/1999/xlink" xmlns:sketch="http://www.bohemiancoding.com/sketch/ns">
    <!-- Generator: Sketch 3.4 (15575) - http://www.bohemiancoding.com/sketch -->
    <title>c-weather-sun</title>
    <desc>Created with Sketch.</desc>
    <defs></defs>
    <g id="Page-1" stroke="none" stroke-width="1" fill="none" fill-rule="evenodd" sketch:type="MSPage">
        <g id="c-weather-sun" sketch:type="MSArtboardGroup">
            <path d="M32,64 C49.673112,64 64,49.673112 64,32 C64,14.326888 49.673112,0 32,0 C14.326888,0 0,14.326888 0,32 C0,49.673112 14.326888,64 32,64 Z" id="Oval-1" fill="#1191BB" sketch:type="MSShapeGroup"></path>
            <circle id="Oval-164" fill="#FFCC00" sketch:type="MSShapeGroup" cx="32" cy="32" r="12"></circle>
            <path d="M32,8.5 L35,16 L29,16 L32,8.5 Z M48.6170094,15.3829906 L45.4350288,22.8076118 L41.1923882,18.5649712 L48.6170094,15.3829906 Z M55.5,32 L48,35 L48,29 L55.5,32 Z M48.6170094,48.6170094 L41.1923882,45.4350288 L45.4350288,41.1923882 L48.6170094,48.6170094 Z M32,55.5 L29,48 L35,48 L32,55.5 Z M15.3829906,48.6170094 L18.5649712,41.1923882 L22.8076118,45.4350288 L15.3829906,48.6170094 Z M8.5,32 L16,29 L16,35 L8.5,32 Z M15.3829906,15.3829906 L22.8076118,18.5649712 L18.5649712,22.8076118 L15.3829906,15.3829906 Z" id="Rectangle-66" fill="#FFCC00" sketch:type="MSShapeGroup"></path>
        </g>
    </g>
</svg>