<?xml version="1.0" encoding="UTF-8" standalone="no"?>
<svg width="64px" height="64px" viewBox="0 0 64 64" version="1.1" xmlns="http://www.w3.org/2000/svg" xmlns:xlink="http://www.w3.org/1999/xlink" xmlns:sketch="http://www.bohemiancoding.com/sketch/ns">
    <!-- Generator: Sketch 3.4 (15575) - http://www.bohemiancoding.com/sketch -->
    <title>c-weather-cloud</title>
    <desc>Created with Sketch.</desc>
    <defs></defs>
    <g id="Page-1" stroke="none" stroke-width="1" fill="none" fill-rule="evenodd" sketch:type="MSPage">
        <g id="c-weather-cloud" sketch:type="MSArtboardGroup">
            <path d="M32,64 C49.673112,64 64,49.673112 64,32 C64,14.326888 49.673112,0 32,0 C14.326888,0 0,14.326888 0,32 C0,49.673112 14.326888,64 32,64 Z" id="Oval-1" fill="#1191BB" sketch:type="MSShapeGroup"></path>
            <path d="M19,40 C16.2385763,40 14,37.7614237 14,35 C14,32.2385763 16.2385763,30 19,30 C20.149737,30 21.2088369,30.3880635 22.0534643,31.040355 C22.0181158,30.69839 22,30.3513106 22,30 C22,24.4771525 26.4771525,20 32,20 C36.1186403,20 39.6557312,22.4899093 41.1881213,26.0465765 C41.4544804,26.0158124 41.7253936,26 42,26 C45.8659932,26 49,29.1340068 49,33 C49,36.8659932 45.8659932,40 42,40 L19,40 Z" id="Oval-152" fill="#FFFFFF" sketch:type="MSShapeGroup"></path>
        </g>
    </g>
</svg>