<?xml version="1.0" encoding="UTF-8" standalone="no"?>
<svg width="64px" height="64px" viewBox="0 0 64 64" version="1.1" xmlns="http://www.w3.org/2000/svg" xmlns:xlink="http://www.w3.org/1999/xlink" xmlns:sketch="http://www.bohemiancoding.com/sketch/ns">
    <!-- Generator: Sketch 3.4 (15575) - http://www.bohemiancoding.com/sketch -->
    <title>c-weather-rain</title>
    <desc>Created with Sketch.</desc>
    <defs></defs>
    <g id="Page-1" stroke="none" stroke-width="1" fill="none" fill-rule="evenodd" sketch:type="MSPage">
        <g id="c-weather-rain" sketch:type="MSArtboardGroup">
            <path d="M32,64 C49.673112,64 64,49.673112 64,32 C64,14.326888 49.673112,0 32,0 C14.326888,0 0,14.326888 0,32 C0,49.673112 14.326888,64 32,64 Z" id="Oval-1" fill="#1191BB" sketch:type="MSShapeGroup"></path>
            <path d="M19,34 C16.2385763,34 14,31.7614237 14,29 C14,26.2385763 16.2385763,24 19,24 C20.149737,24 21.2088369,24.3880635 22.0534643,25.040355 C22.0181158,24.69839 22,24.3513106 22,24 C22,18.4771525 26.4771525,14 32,14 C36.1186403,14 39.6557312,16.4899093 41.1881213,20.0465765 C41.4544804,20.0158124 41.7253936,20 42,20 C45.8659932,20 49,23.1340068 49,27 C49,30.8659932 45.8659932,34 42,34 L19,34 Z" id="Oval-152" fill="#FFFFFF" sketch:type="MSShapeGroup"></path>
            <path d="M19.5,45.75 C20.8807119,45.75 22,44.6307119 22,43.25 C22,41.8692881 19.5,37 19.5,37 C19.5,37 17,41.8692881 17,43.25 C17,44.6307119 18.1192881,45.75 19.5,45.75 Z" id="Oval-161" fill="#FFFFFF" sketch:type="MSShapeGroup" transform="translate(19.500000, 41.375000) rotate(45.000000) translate(-19.500000, -41.375000) "></path>
            <path d="M39.5,45.75 C40.8807119,45.75 42,44.6307119 42,43.25 C42,41.8692881 39.5,37 39.5,37 C39.5,37 37,41.8692881 37,43.25 C37,44.6307119 38.1192881,45.75 39.5,45.75 Z" id="Oval-161" fill="#FFFFFF" sketch:type="MSShapeGroup" transform="translate(39.500000, 41.375000) rotate(45.000000) translate(-39.500000, -41.375000) "></path>
            <path d="M28.5,50.75 C29.8807119,50.75 31,49.6307119 31,48.25 C31,46.8692881 28.5,42 28.5,42 C28.5,42 26,46.8692881 26,48.25 C26,49.6307119 27.1192881,50.75 28.5,50.75 Z" id="Oval-161" fill="#FFFFFF" sketch:type="MSShapeGroup" transform="translate(28.500000, 46.375000) rotate(45.000000) translate(-28.500000, -46.375000) "></path>
        </g>
    </g>
</svg>