<?xml version="1.0" encoding="UTF-8" standalone="no"?>
<svg width="64px" height="64px" viewBox="0 0 64 64" version="1.1" xmlns="http://www.w3.org/2000/svg" xmlns:xlink="http://www.w3.org/1999/xlink" xmlns:sketch="http://www.bohemiancoding.com/sketch/ns">
    <!-- Generator: Sketch 3.4 (15575) - http://www.bohemiancoding.com/sketch -->
    <title>c-wifi</title>
    <desc>Created with Sketch.</desc>
    <defs></defs>
    <g id="Page-1" stroke="none" stroke-width="1" fill="none" fill-rule="evenodd" sketch:type="MSPage">
        <g id="c-wifi" sketch:type="MSArtboardGroup">
            <path d="M32,64 C49.673112,64 64,49.673112 64,32 C64,14.326888 49.673112,0 32,0 C14.326888,0 0,14.326888 0,32 C0,49.673112 14.326888,64 32,64 Z" id="Oval-1" fill="#FFCC00" sketch:type="MSShapeGroup"></path>
            <g id="Oval-14-+-Oval-15-+-Oval-15" sketch:type="MSLayerGroup" transform="translate(10.000000, 10.000000)" fill="#000000">
                <circle id="Oval-14" sketch:type="MSShapeGroup" cx="22" cy="22" r="7"></circle>
                <path d="M37,22 C37,13.7157288 30.2842712,7 22,7 C13.7157288,7 7,13.7157288 7,22 L10,22 C10,15.372583 15.372583,10 22,10 C28.627417,10 34,15.372583 34,22 L37,22 Z" id="Oval-15" sketch:type="MSShapeGroup"></path>
                <path d="M44,22 C44,9.8497355 34.1502645,0 22,0 C9.8497355,0 0,9.8497355 0,22 L3,22 C3,11.5065898 11.5065898,3 22,3 C32.4934102,3 41,11.5065898 41,22 L44,22 Z" id="Oval-15" sketch:type="MSShapeGroup"></path>
            </g>
        </g>
    </g>
</svg>