<?xml version="1.0" encoding="UTF-8" standalone="no"?>
<svg width="64px" height="64px" viewBox="0 0 64 64" version="1.1" xmlns="http://www.w3.org/2000/svg" xmlns:xlink="http://www.w3.org/1999/xlink" xmlns:sketch="http://www.bohemiancoding.com/sketch/ns">
    <!-- Generator: Sketch 3.4 (15575) - http://www.bohemiancoding.com/sketch -->
    <title>c-world</title>
    <desc>Created with Sketch.</desc>
    <defs></defs>
    <g id="Page-1" stroke="none" stroke-width="1" fill="none" fill-rule="evenodd" sketch:type="MSPage">
        <g id="c-world" sketch:type="MSArtboardGroup">
            <path d="M32,64 C49.673112,64 64,49.673112 64,32 C64,14.326888 49.673112,0 32,0 C14.326888,0 0,14.326888 0,32 C0,49.673112 14.326888,64 32,64 Z" id="Oval-1" fill="#1191BB" sketch:type="MSShapeGroup"></path>
            <path d="M63.8668146,29.0607397 C58.7295411,28.9213876 51.7331226,29.9686957 51.4999999,29.5 C50.4499726,27.3889091 45.4999999,26.1036355 45.4999999,23.5 C45.4999999,20.0142249 49.3015419,18.8316424 50,16 C50.2451069,15.0063041 48.4999999,12.5 48.4999999,12.5 C48.4999999,12.5 52.447721,11.3192115 55.7745219,10.5806332 C60.2724757,15.5699563 63.2222218,21.982307 63.8668146,29.0607397 Z M63.0899881,39.6084577 C58.7618354,38.15323 52.2775898,35.898203 48.4999999,37 C42.4999999,38.75 45.1521204,39.4945562 42.5,42 C40.2681063,44.108458 43.4210321,49.3933833 43.5000001,51 C43.6074416,53.1859159 42.6726128,56.0500972 44.5000001,57.5 C45.6311839,58.3975145 47.0237749,59.0312199 48.4114272,59.4768549 C55.6518757,55.142952 61.0365672,48.0283151 63.0899881,39.6084577 Z M9.47843774,9.26721811 C11.3049087,10.8225708 12.3380209,13.3899129 15,14.5 C18.9617198,16.1520993 26.5,14.6063985 26.5,20 C26.5,22.105266 33.5381237,30.1005625 33,32 C31.8349539,36.1123114 26.3815182,35.6921346 20.5,38.5 C15.2011968,41.0296744 13.0798977,48.5 9.5,48.5 C7.68524878,48.5 5.80615123,48.1177875 3.95538176,47.4233466 C1.43441637,42.8491685 0,37.5920972 0,32 C0,23.1097255 3.62540185,15.0662089 9.47843774,9.26721811 Z M34.0000001,24 C36.2091391,24 37,22.9852814 37,20.5 C37,18.0147186 34.209139,18 32,18 C29.790861,18 30,18.5147186 30,21 C30,23.4852814 31.7908611,24 34.0000001,24 Z M24,48 C26.209139,48 28,46.9852814 28,44.5 C28,42.0147186 27.209139,41 25,41 C22.790861,41 20,42.0147186 20,44.5 C20,46.9852814 21.790861,48 24,48 Z" id="Oval-226" fill="#00BF2F" sketch:type="MSShapeGroup"></path>
            <path d="M44.0811781,61.6409415 C42.7439852,61.0660159 41.1632105,60.5631696 39.5,60 C37.3252922,59.2636354 35.6751573,57 33,57 C30.6832258,57 28.4588456,58.437268 26.5,59 C23.9204093,59.741058 21.7567128,60.6181827 20.2579219,61.7770266 C23.89338,63.2117748 27.8546401,64 32,64 C36.2746098,64 40.3534606,63.1618557 44.0811781,61.6409415 Z M46.9329414,3.69065831 C46.1241404,7.44119428 38.1630577,3 32,3 C26.0963471,3 21.2431975,4.00074467 18.9414559,2.77701277 C22.9290604,0.992399073 27.3486366,0 32,0 C37.3932999,0 42.4749707,1.33424306 46.9329414,3.69065831 Z" id="Oval-1" fill="#A5D6E6" sketch:type="MSShapeGroup"></path>
            <path d="M49.0710832,4.92891682 C52.1930876,9.86937069 54,15.7236718 54,22 C54,39.673112 39.673112,54 22,54 C15.7236718,54 9.86937069,52.1930876 4.92891682,49.0710832 C1.80691237,44.1306293 0,38.2763282 0,32 C0,14.326888 14.326888,0 32,0 C38.2763282,0 44.1306293,1.80691237 49.0710832,4.92891682 Z" id="Oval-1" fill-opacity="0.200000018" fill="#FFFFFF" sketch:type="MSShapeGroup"></path>
            <path d="M42.3046439,1.69535609 C43.4038102,4.92884765 44,8.39480003 44,12 C44,29.673112 29.673112,44 12,44 C8.39480003,44 4.92884765,43.4038102 1.69535609,42.3046439 C0.596189775,39.0711523 0,35.6052 0,32 C0,14.326888 14.326888,0 32,0 C35.6052,0 39.0711523,0.596189775 42.3046439,1.69535609 Z" id="Oval-1" fill-opacity="0.200000018" fill="#FFFFFF" sketch:type="MSShapeGroup"></path>
        </g>
    </g>
</svg>